<svg width="8000" height="5000"><rect width="8000" height="5000" fill="black"/><rect x="100" y="770" width="100" height="4070" fill="gray"/><rect x="100" y="770" width="1000" height="70" fill="gray"/><rect x="900" y="785" width="400" height="40" fill= "gray" transform = "rotate(-45 1100 800)"/><rect x="1210" y="652" width="400" height="40" fill= "gray" transform = "rotate(-24 1230 672)"/><rect x="950" y="918" width="400" height="40" fill= "gray" transform = "rotate(114 970 938)"/><rect x="100" y="4800" width="7000" height="50" fill="gray"/><line x1="1100" y1="800" x2="11100" y2="-4200.0" style="stroke:rgb(250, 117, 22);stroke-width:20" /><line x1="1100" y1="800" x2="11100" y2="-450.0" style="stroke:rgb(250, 117, 22);stroke-width:20" /><line x1="1100" y1="800" x2="11100" y2="2050.0" style="stroke:rgb(250, 117, 22);stroke-width:20" /><line x1="1100" y1="800" x2="11100" y2="4133.333333333333" style="stroke:rgb(250, 117, 22);stroke-width:20" /><line x1="1100" y1="800" x2="11100" y2="5800.0" style="stroke:rgb(250, 117, 22);stroke-width:20" /><line x1="1100" y1="800" x2="11100" y2="7466.666666666666" style="stroke:rgb(250, 117, 22);stroke-width:20" /><line x1="1100" y1="800" x2="11100" y2="9371.42857142857" style="stroke:rgb(250, 117, 22);stroke-width:20" /><line x1="1100" y1="800" x2="11100" y2="10800" style="stroke:rgb(250, 117, 22);stroke-width:20" /><line x1="1100" y1="800" x2="11100" y2="12466.666666666668" style="stroke:rgb(250, 117, 22);stroke-width:20" /><line x1="1100" y1="800" x2="11100" y2="15800.0" style="stroke:rgb(250, 117, 22);stroke-width:20" /><line x1="1100" y1="800" x2="11100" y2="20800" style="stroke:rgb(250, 117, 22);stroke-width:20" /><line x1="1100" y1="800" x2="11100" y2="30800" style="stroke:rgb(250, 117, 22);stroke-width:20" /><line x1="1100" y1="800" x2="11100" y2="80800" style="stroke:rgb(250, 117, 22);stroke-width:20" /><line x1="1100" y1="800" x2="-8900" y2="80800" style="stroke:rgb(250, 117, 22);stroke-width:20" /><line x1="1100" y1="800" x2="-8900" y2="20800" style="stroke:rgb(250, 117, 22);stroke-width:20" /><line x1="1100" y1="800" x2="5766.666666666667" y2="4800" style="stroke:rgb(250, 216, 22);stroke-width:20" /><line x1="1100" y1="800" x2="5100.0" y2="4800" style="stroke:rgb(250, 216, 22);stroke-width:20" /><line x1="1100" y1="800" x2="4528.571428571428" y2="4800" style="stroke:rgb(250, 216, 22);stroke-width:20" /><line x1="1100" y1="800" x2="3766.6666666666665" y2="4800" style="stroke:rgb(250, 216, 22);stroke-width:20" /><line x1="1100" y1="800" x2="3100.0" y2="4800" style="stroke:rgb(250, 216, 22);stroke-width:20" /><line x1="1100" y1="800" x2="2433.333333333333" y2="4800" style="stroke:rgb(250, 216, 22);stroke-width:20" /><line x1="1100" y1="800" x2="1600.0" y2="4800" style="stroke:rgb(250, 216, 22);stroke-width:20" /><line x1="1100" y1="800" x2="600.0" y2="4800" style="stroke:rgb(250, 216, 22);stroke-width:20" /></svg>