<svg width="13000" height="10000"><rect width="13000" height="10000" fill="black"/><line x1="2000.0" y1="1000.0" x2="1905.0433566890647" y2="1033.625910981575" style="stroke:rgb(250, 216, 22);stroke-opacity:0.078;stroke-width:10"/>
<line x1="1905.0433566890647" y1="1033.625910981575" x2="2103.138998401375" y2="996.9110539415161" style="stroke:rgb(250, 216, 22);stroke-opacity:0.078;stroke-width:10"/>
<line x1="2103.138998401375" y1="996.9110539415161" x2="1913.2257117795043" y2="1064.1628759046662" style="stroke:rgb(250, 216, 22);stroke-opacity:0.078;stroke-width:10"/>
<line x1="1913.2257117795043" y1="1064.1628759046662" x2="2111.321353491815" y2="1027.4480188646069" style="stroke:rgb(250, 216, 22);stroke-opacity:0.078;stroke-width:10"/>
<line x1="2111.321353491815" y1="1027.4480188646069" x2="1921.4080668699442" y2="1094.6998408277568" style="stroke:rgb(250, 216, 22);stroke-opacity:0.078;stroke-width:10"/>
<line x1="1921.4080668699442" y1="1094.6998408277568" x2="2119.5037085822546" y2="1057.9849837876975" style="stroke:rgb(250, 216, 22);stroke-opacity:0.078;stroke-width:10"/>
<line x1="2119.5037085822546" y1="1057.9849837876975" x2="1929.5904219603838" y2="1125.2368057508475" style="stroke:rgb(250, 216, 22);stroke-opacity:0.078;stroke-width:10"/>
<line x1="1929.5904219603838" y1="1125.2368057508475" x2="2127.686063672694" y2="1088.521948710788" style="stroke:rgb(250, 216, 22);stroke-opacity:0.078;stroke-width:10"/>
<line x1="2127.686063672694" y1="1088.521948710788" x2="1937.7727770508234" y2="1155.7737706739376" style="stroke:rgb(250, 216, 22);stroke-opacity:0.078;stroke-width:10"/>
<line x1="1937.7727770508234" y1="1155.7737706739376" x2="2135.8684187631334" y2="1119.058913633878" style="stroke:rgb(250, 216, 22);stroke-opacity:0.078;stroke-width:10"/>
<line x1="2135.8684187631334" y1="1119.058913633878" x2="1945.9551321412628" y2="1186.3107355970278" style="stroke:rgb(250, 216, 22);stroke-opacity:0.078;stroke-width:10"/>
<line x1="1945.9551321412628" y1="1186.3107355970278" x2="2144.050773853573" y2="1149.5958785569683" style="stroke:rgb(250, 216, 22);stroke-opacity:0.078;stroke-width:10"/>
<line x1="2144.050773853573" y1="1149.5958785569683" x2="1954.1374872317022" y2="1216.8477005201175" style="stroke:rgb(250, 216, 22);stroke-opacity:0.078;stroke-width:10"/>
<line x1="1954.1374872317022" y1="1216.8477005201175" x2="2152.2331289440126" y2="1180.132843480058" style="stroke:rgb(250, 216, 22);stroke-opacity:0.078;stroke-width:10"/>
<line x1="2152.2331289440126" y1="1180.132843480058" x2="1962.3198423221415" y2="1247.3846654432073" style="stroke:rgb(250, 216, 22);stroke-opacity:0.078;stroke-width:10"/>
<line x1="1962.3198423221415" y1="1247.3846654432073" x2="2160.4154840344518" y2="1210.6698084031473" style="stroke:rgb(250, 216, 22);stroke-opacity:0.078;stroke-width:10"/>
<line x1="2160.4154840344518" y1="1210.6698084031473" x2="1970.502197412581" y2="1277.9216303662965" style="stroke:rgb(250, 216, 22);stroke-opacity:0.078;stroke-width:10"/>
<line x1="1970.502197412581" y1="1277.9216303662965" x2="2168.597839124891" y2="1241.2067733262365" style="stroke:rgb(250, 216, 22);stroke-opacity:0.078;stroke-width:10"/>
<line x1="2168.597839124891" y1="1241.2067733262365" x2="1978.68455250302" y2="1308.4585952893856" style="stroke:rgb(250, 216, 22);stroke-opacity:0.078;stroke-width:10"/>
<line x1="1978.68455250302" y1="1308.4585952893856" x2="2176.78019421533" y2="1271.7437382493256" style="stroke:rgb(250, 216, 22);stroke-opacity:0.078;stroke-width:10"/>
<line x1="2176.78019421533" y1="1271.7437382493256" x2="1986.8669075934592" y2="1338.9955602124746" style="stroke:rgb(250, 216, 22);stroke-opacity:0.078;stroke-width:10"/>
<line x1="1986.8669075934592" y1="1338.9955602124746" x2="2184.9625493057692" y2="1302.2807031724144" style="stroke:rgb(250, 216, 22);stroke-opacity:0.078;stroke-width:10"/>
<line x1="2184.9625493057692" y1="1302.2807031724144" x2="-7310.701781787778" y2="4664.871801329855" style="stroke:rgb(250, 216, 22);stroke-opacity:0.078;stroke-width:10"/>
<line x1="2000.0" y1="1000.0" x2="1909.2378157366475" y2="1049.2798452574214" style="stroke:rgb(250, 216, 22);stroke-opacity:0.233;stroke-width:10"/>
<line x1="1909.2378157366475" y1="1049.2798452574214" x2="2115.7223755441237" y2="1043.8728567690546" style="stroke:rgb(250, 216, 22);stroke-opacity:0.233;stroke-width:10"/>
<line x1="2115.7223755441237" y1="1043.8728567690546" x2="1934.1980070174186" y2="1142.432547283897" style="stroke:rgb(250, 216, 22);stroke-opacity:0.233;stroke-width:10"/>
<line x1="1934.1980070174186" y1="1142.432547283897" x2="2140.682566824895" y2="1137.0255587955303" style="stroke:rgb(250, 216, 22);stroke-opacity:0.233;stroke-width:10"/>
<line x1="2140.682566824895" y1="1137.0255587955303" x2="1959.1581982981897" y2="1235.5852493103725" style="stroke:rgb(250, 216, 22);stroke-opacity:0.233;stroke-width:10"/>
<line x1="1959.1581982981897" y1="1235.5852493103725" x2="2165.642758105666" y2="1230.1782608220055" style="stroke:rgb(250, 216, 22);stroke-opacity:0.233;stroke-width:10"/>
<line x1="2165.642758105666" y1="1230.1782608220055" x2="1984.118389578961" y2="1328.7379513368478" style="stroke:rgb(250, 216, 22);stroke-opacity:0.233;stroke-width:10"/>
<line x1="1984.118389578961" y1="1328.7379513368478" x2="2190.6029493864366" y2="1323.3309628484808" style="stroke:rgb(250, 216, 22);stroke-opacity:0.233;stroke-width:10"/>
<line x1="2190.6029493864366" y1="1323.3309628484808" x2="-6885.615476948813" y2="6251.315488590579" style="stroke:rgb(250, 216, 22);stroke-opacity:0.233;stroke-width:10"/>
<line x1="2000.0" y1="1000.0" x2="1913.7638700359596" y2="1066.1713098602693" style="stroke:rgb(250, 216, 22);stroke-opacity:0.383;stroke-width:10"/>
<line x1="1913.7638700359596" y1="1066.1713098602693" x2="2129.30053844206" y2="1094.547250577599" style="stroke:rgb(250, 216, 22);stroke-opacity:0.383;stroke-width:10"/>
<line x1="2129.30053844206" y1="1094.547250577599" x2="1956.8282785139788" y2="1226.8898702981376" style="stroke:rgb(250, 216, 22);stroke-opacity:0.383;stroke-width:10"/>
<line x1="1956.8282785139788" y1="1226.8898702981376" x2="2172.364946920079" y2="1255.265811015467" style="stroke:rgb(250, 216, 22);stroke-opacity:0.383;stroke-width:10"/>
<line x1="2172.364946920079" y1="1255.265811015467" x2="-6451.248049483967" y2="7872.396797042389" style="stroke:rgb(250, 216, 22);stroke-opacity:0.383;stroke-width:10"/>
<line x1="2000.0" y1="1000.0" x2="1918.9254836248192" y2="1085.4347140229315" style="stroke:rgb(250, 216, 22);stroke-opacity:0.522;stroke-width:10"/>
<line x1="1918.9254836248192" y1="1085.4347140229315" x2="2144.7853792086385" y2="1152.3374630655853" style="stroke:rgb(250, 216, 22);stroke-opacity:0.522;stroke-width:10"/>
<line x1="2144.7853792086385" y1="1152.3374630655853" x2="1982.636346458277" y2="1323.206891111448" style="stroke:rgb(250, 216, 22);stroke-opacity:0.522;stroke-width:10"/>
<line x1="1982.636346458277" y1="1323.206891111448" x2="2208.4962420420966" y2="1390.1096401541017" style="stroke:rgb(250, 216, 22);stroke-opacity:0.522;stroke-width:10"/>
<line x1="2208.4962420420966" y1="1390.1096401541017" x2="-5898.955395475985" y2="9933.581042447231" style="stroke:rgb(250, 216, 22);stroke-opacity:0.522;stroke-width:10"/>
<line x1="2000.0" y1="1000.0" x2="1925.19675103356" y2="1108.839402620203" style="stroke:rgb(250, 216, 22);stroke-opacity:0.649;stroke-width:10"/>
<line x1="1925.19675103356" y1="1108.839402620203" x2="2163.599181434861" y2="1222.5515288573997" style="stroke:rgb(250, 216, 22);stroke-opacity:0.649;stroke-width:10"/>
<line x1="2163.599181434861" y1="1222.5515288573997" x2="-5316.725715209143" y2="12106.491790877684" style="stroke:rgb(250, 216, 22);stroke-opacity:0.649;stroke-width:10"/>
<line x1="2000.0" y1="1000.0" x2="1933.430103166722" y2="1139.566691097769" style="stroke:rgb(250, 216, 22);stroke-opacity:0.76;stroke-width:10"/>
<line x1="1933.430103166722" y1="1139.566691097769" x2="2188.299237834347" y2="1314.7333942900982" style="stroke:rgb(250, 216, 22);stroke-opacity:0.76;stroke-width:10"/>
<line x1="2188.299237834347" y1="1314.7333942900982" x2="-4468.690445493459" y2="15271.402504066999" style="stroke:rgb(250, 216, 22);stroke-opacity:0.76;stroke-width:10"/>
<line x1="2000.0" y1="1000.0" x2="1945.4123180505958" y2="1184.284925831594" style="stroke:rgb(250, 216, 22);stroke-opacity:0.853;stroke-width:10"/>
<line x1="1945.4123180505958" y1="1184.284925831594" x2="10181.457528068084" y2="9000.0" style="stroke:rgb(250, 216, 22);stroke-opacity:0.853;stroke-width:10"/>
<line x1="2000.0" y1="1000.0" x2="1965.747209537564" y2="1260.1757740273597" style="stroke:rgb(250, 216, 22);stroke-opacity:0.924;stroke-width:10"/>
<line x1="1965.747209537564" y1="1260.1757740273597" x2="7904.72322033974" y2="9000.0" style="stroke:rgb(250, 216, 22);stroke-opacity:0.924;stroke-width:10"/>
<line x1="2000.0" y1="1000.0" x2="2209.487372553495" y2="9000.0" style="stroke:rgb(250, 216, 22);stroke-opacity:0.972;stroke-width:10"/>
<line x1="2000.0" y1="1000.0" x2="3482.712359452271" y2="9000.0" style="stroke:rgb(250, 216, 22);stroke-opacity:0.997;stroke-width:10"/>
<line x1="2000.0" y1="1000.0" x2="4832.948580245584" y2="9000.0" style="stroke:rgb(250, 216, 22);stroke-opacity:0.997;stroke-width:10"/>
<line x1="2000.0" y1="1000.0" x2="2205.2653281208277" y2="1378.0517052450457" style="stroke:rgb(250, 216, 22);stroke-opacity:0.972;stroke-width:10"/>
<line x1="2205.2653281208277" y1="1378.0517052450457" x2="2404.8530683716735" y2="9000.0" style="stroke:rgb(250, 216, 22);stroke-opacity:0.972;stroke-width:10"/>
<line x1="2000.0" y1="1000.0" x2="2159.7516737046544" y2="1208.1924345257548" style="stroke:rgb(250, 216, 22);stroke-opacity:0.924;stroke-width:10"/>
<line x1="2159.7516737046544" y1="1208.1924345257548" x2="1133.9407469895932" y2="9000.0" style="stroke:rgb(250, 216, 22);stroke-opacity:0.924;stroke-width:10"/>
<line x1="2000.0" y1="1000.0" x2="2139.416782217686" y2="1132.3015863299893" style="stroke:rgb(250, 216, 22);stroke-opacity:0.853;stroke-width:10"/>
<line x1="2139.416782217686" y1="1132.3015863299893" x2="-589.9673152525324" y2="10346.54787790968" style="stroke:rgb(250, 216, 22);stroke-opacity:0.853;stroke-width:10"/>
<line x1="2000.0" y1="1000.0" x2="2127.4345673338125" y2="1087.5833515961644" style="stroke:rgb(250, 216, 22);stroke-opacity:0.76;stroke-width:10"/>
<line x1="2127.4345673338125" y1="1087.5833515961644" x2="-1201.060274330092" y2="8065.917906484612" style="stroke:rgb(250, 216, 22);stroke-opacity:0.76;stroke-width:10"/>
<line x1="2000.0" y1="1000.0" x2="2119.2012152006505" y2="1056.8560631185983" style="stroke:rgb(250, 216, 22);stroke-opacity:0.649;stroke-width:10"/>
<line x1="2119.2012152006505" y1="1056.8560631185983" x2="1969.5947172677704" y2="1274.534868359004" style="stroke:rgb(250, 216, 22);stroke-opacity:0.649;stroke-width:10"/>
<line x1="1969.5947172677704" y1="1274.534868359004" x2="2207.997147669071" y2="1388.2469945962002" style="stroke:rgb(250, 216, 22);stroke-opacity:0.649;stroke-width:10"/>
<line x1="2207.997147669071" y1="1388.2469945962002" x2="-5272.327748974936" y2="12272.18725661647" style="stroke:rgb(250, 216, 22);stroke-opacity:0.649;stroke-width:10"/>
<line x1="2000.0" y1="1000.0" x2="2112.92994779191" y2="1033.451374521327" style="stroke:rgb(250, 216, 22);stroke-opacity:0.522;stroke-width:10"/>
<line x1="2112.92994779191" y1="1033.451374521327" x2="1950.780915041548" y2="1204.3208025671897" style="stroke:rgb(250, 216, 22);stroke-opacity:0.522;stroke-width:10"/>
<line x1="1950.780915041548" y1="1204.3208025671897" x2="2176.6408106253675" y2="1271.2235516098433" style="stroke:rgb(250, 216, 22);stroke-opacity:0.522;stroke-width:10"/>
<line x1="2176.6408106253675" y1="1271.2235516098433" x2="-5930.810826892716" y2="9814.694953902972" style="stroke:rgb(250, 216, 22);stroke-opacity:0.522;stroke-width:10"/>
<line x1="2000.0" y1="1000.0" x2="2107.76833420305" y2="1014.1879703586648" style="stroke:rgb(250, 216, 22);stroke-opacity:0.383;stroke-width:10"/>
<line x1="2107.76833420305" y1="1014.1879703586648" x2="1935.2960742749692" y2="1146.5305900792032" style="stroke:rgb(250, 216, 22);stroke-opacity:0.383;stroke-width:10"/>
<line x1="1935.2960742749692" y1="1146.5305900792032" x2="2150.8327426810692" y2="1174.9065307965327" style="stroke:rgb(250, 216, 22);stroke-opacity:0.383;stroke-width:10"/>
<line x1="2150.8327426810692" y1="1174.9065307965327" x2="1978.3604827529884" y2="1307.249150517071" style="stroke:rgb(250, 216, 22);stroke-opacity:0.383;stroke-width:10"/>
<line x1="1978.3604827529884" y1="1307.249150517071" x2="2193.8971511590885" y2="1335.6250912344003" style="stroke:rgb(250, 216, 22);stroke-opacity:0.383;stroke-width:10"/>
<line x1="2193.8971511590885" y1="1335.6250912344003" x2="-6429.7158452449585" y2="7952.756077261312" style="stroke:rgb(250, 216, 22);stroke-opacity:0.383;stroke-width:10"/>
<line x1="2000.0" y1="1000.0" x2="2103.242279903738" y2="997.2965057558167" style="stroke:rgb(250, 216, 22);stroke-opacity:0.233;stroke-width:10"/>
<line x1="2103.242279903738" y1="997.2965057558167" x2="1921.717911377033" y2="1095.856196270659" style="stroke:rgb(250, 216, 22);stroke-opacity:0.233;stroke-width:10"/>
<line x1="1921.717911377033" y1="1095.856196270659" x2="2128.2024711845092" y2="1090.4492077822922" style="stroke:rgb(250, 216, 22);stroke-opacity:0.233;stroke-width:10"/>
<line x1="2128.2024711845092" y1="1090.4492077822922" x2="1946.6781026578042" y2="1189.0088982971345" style="stroke:rgb(250, 216, 22);stroke-opacity:0.233;stroke-width:10"/>
<line x1="1946.6781026578042" y1="1189.0088982971345" x2="2153.1626624652804" y2="1183.6019098087677" style="stroke:rgb(250, 216, 22);stroke-opacity:0.233;stroke-width:10"/>
<line x1="2153.1626624652804" y1="1183.6019098087677" x2="1971.638293938575" y2="1282.1616003236097" style="stroke:rgb(250, 216, 22);stroke-opacity:0.233;stroke-width:10"/>
<line x1="1971.638293938575" y1="1282.1616003236097" x2="2178.122853746051" y2="1276.7546118352427" style="stroke:rgb(250, 216, 22);stroke-opacity:0.233;stroke-width:10"/>
<line x1="2178.122853746051" y1="1276.7546118352427" x2="-6898.095572589201" y2="6204.739137577341" style="stroke:rgb(250, 216, 22);stroke-opacity:0.233;stroke-width:10"/>
<line x1="2000.0" y1="1000.0" x2="2099.0478208561553" y2="981.6425714799706" style="stroke:rgb(250, 216, 22);stroke-opacity:0.078;stroke-width:10"/>
<line x1="2099.0478208561553" y1="981.6425714799706" x2="1909.1345342342845" y2="1048.8943934431206" style="stroke:rgb(250, 216, 22);stroke-opacity:0.078;stroke-width:10"/>
<line x1="1909.1345342342845" y1="1048.8943934431206" x2="2107.230175946595" y2="1012.1795364030615" style="stroke:rgb(250, 216, 22);stroke-opacity:0.078;stroke-width:10"/>
<line x1="2107.230175946595" y1="1012.1795364030615" x2="1917.3168893247243" y2="1079.4313583662115" style="stroke:rgb(250, 216, 22);stroke-opacity:0.078;stroke-width:10"/>
<line x1="1917.3168893247243" y1="1079.4313583662115" x2="2115.4125310370346" y2="1042.7165013261524" style="stroke:rgb(250, 216, 22);stroke-opacity:0.078;stroke-width:10"/>
<line x1="2115.4125310370346" y1="1042.7165013261524" x2="1925.499244415164" y2="1109.9683232893021" style="stroke:rgb(250, 216, 22);stroke-opacity:0.078;stroke-width:10"/>
<line x1="1925.499244415164" y1="1109.9683232893021" x2="2123.594886127474" y2="1073.2534662492428" style="stroke:rgb(250, 216, 22);stroke-opacity:0.078;stroke-width:10"/>
<line x1="2123.594886127474" y1="1073.2534662492428" x2="1933.6815995056036" y2="1140.5052882123925" style="stroke:rgb(250, 216, 22);stroke-opacity:0.078;stroke-width:10"/>
<line x1="1933.6815995056036" y1="1140.5052882123925" x2="2131.777241217914" y2="1103.7904311723332" style="stroke:rgb(250, 216, 22);stroke-opacity:0.078;stroke-width:10"/>
<line x1="2131.777241217914" y1="1103.7904311723332" x2="1941.8639545960432" y2="1171.0422531354827" style="stroke:rgb(250, 216, 22);stroke-opacity:0.078;stroke-width:10"/>
<line x1="1941.8639545960432" y1="1171.0422531354827" x2="2139.9595963083534" y2="1134.3273960954234" style="stroke:rgb(250, 216, 22);stroke-opacity:0.078;stroke-width:10"/>
<line x1="2139.9595963083534" y1="1134.3273960954234" x2="1950.0463096864826" y2="1201.5792180585727" style="stroke:rgb(250, 216, 22);stroke-opacity:0.078;stroke-width:10"/>
<line x1="1950.0463096864826" y1="1201.5792180585727" x2="2148.1419513987926" y2="1164.8643610185131" style="stroke:rgb(250, 216, 22);stroke-opacity:0.078;stroke-width:10"/>
<line x1="2148.1419513987926" y1="1164.8643610185131" x2="1958.228664776922" y2="1232.1161829816624" style="stroke:rgb(250, 216, 22);stroke-opacity:0.078;stroke-width:10"/>
<line x1="1958.228664776922" y1="1232.1161829816624" x2="2156.324306489232" y2="1195.4013259416029" style="stroke:rgb(250, 216, 22);stroke-opacity:0.078;stroke-width:10"/>
<line x1="2156.324306489232" y1="1195.4013259416029" x2="1966.4110198673613" y2="1262.6531479047521" style="stroke:rgb(250, 216, 22);stroke-opacity:0.078;stroke-width:10"/>
<line x1="1966.4110198673613" y1="1262.6531479047521" x2="2164.5066615796713" y2="1225.9382908646921" style="stroke:rgb(250, 216, 22);stroke-opacity:0.078;stroke-width:10"/>
<line x1="2164.5066615796713" y1="1225.9382908646921" x2="1974.5933749578005" y2="1293.1901128278414" style="stroke:rgb(250, 216, 22);stroke-opacity:0.078;stroke-width:10"/>
<line x1="1974.5933749578005" y1="1293.1901128278414" x2="2172.6890166701105" y2="1256.4752557877814" style="stroke:rgb(250, 216, 22);stroke-opacity:0.078;stroke-width:10"/>
<line x1="2172.6890166701105" y1="1256.4752557877814" x2="1982.77573004824" y2="1323.7270777509302" style="stroke:rgb(250, 216, 22);stroke-opacity:0.078;stroke-width:10"/>
<line x1="1982.77573004824" y1="1323.7270777509302" x2="2180.8713717605497" y2="1287.0122207108702" style="stroke:rgb(250, 216, 22);stroke-opacity:0.078;stroke-width:10"/>
<line x1="2180.8713717605497" y1="1287.0122207108702" x2="-7314.792959332995" y2="4649.603318868314" style="stroke:rgb(250, 216, 22);stroke-opacity:0.078;stroke-width:10"/>
<rect x="1000" y="9000" width="11000" height="50" fill="gray"/><line x1="1903" y1="1026" x2="2097" y2="974" style="stroke:gray;stroke-width:20"/><line x1="2097" y1="974" x2="2209.863807733664" y2="1395.21346479772" style="stroke:gray;stroke-width:20"/><line x1="1903" y1="1026" x2="1988.4800930469623" y2="1345.016050286979" style="stroke:gray;stroke-width:20"/></svg>