<svg width="16000" height="8000">
<rect width="16000" height="8000" fill="black"/>
<circle cx = "11156.875757337522" cy = "-2599.3820616961148" r = "40" style="fill:rgb(250, 216, 22);fill-opacity:0.296;" />
<circle cx = "11156.875757337524" cy = "-261.6354809997756" r = "40" style="fill:rgb(250, 216, 22);fill-opacity:0.378;" />
<circle cx = "11156.875757337515" cy = "867.0712730486734" r = "40" style="fill:rgb(250, 216, 22);fill-opacity:0.435;" />
<circle cx = "11156.875757337513" cy = "1602.8300419376328" r = "40" style="fill:rgb(250, 216, 22);fill-opacity:0.478;" />
<circle cx = "11156.875757337511" cy = "2154.657705892546" r = "40" style="fill:rgb(250, 216, 22);fill-opacity:0.511;" />
<circle cx = "11156.875757337526" cy = "2605.052344572069" r = "40" style="fill:rgb(250, 216, 22);fill-opacity:0.536;" />
<circle cx = "11156.87575733752" cy = "2994.8332327671596" r = "40" style="fill:rgb(250, 216, 22);fill-opacity:0.555;" />
<circle cx = "11156.875757337515" cy = "3347.5729751131385" r = "40" style="fill:rgb(250, 216, 22);fill-opacity:0.568;" />
<circle cx = "11156.875757337533" cy = "3678.7671390058626" r = "40" style="fill:rgb(250, 216, 22);fill-opacity:0.576;" />
<circle cx = "11156.875757337519" cy = "4000.0" r = "40" style="fill:rgb(250, 216, 22);fill-opacity:0.578;" />
<circle cx = "11156.875757337533" cy = "4321.232860994138" r = "40" style="fill:rgb(250, 216, 22);fill-opacity:0.576;" />
<circle cx = "11156.875757337515" cy = "4652.427024886862" r = "40" style="fill:rgb(250, 216, 22);fill-opacity:0.568;" />
<circle cx = "11156.87575733752" cy = "5005.16676723284" r = "40" style="fill:rgb(250, 216, 22);fill-opacity:0.555;" />
<circle cx = "11156.875757337526" cy = "5394.947655427931" r = "40" style="fill:rgb(250, 216, 22);fill-opacity:0.536;" />
<circle cx = "11156.875757337511" cy = "5845.342294107454" r = "40" style="fill:rgb(250, 216, 22);fill-opacity:0.511;" />
<circle cx = "11156.875757337513" cy = "6397.169958062367" r = "40" style="fill:rgb(250, 216, 22);fill-opacity:0.478;" />
<circle cx = "11156.875757337515" cy = "7132.928726951326" r = "40" style="fill:rgb(250, 216, 22);fill-opacity:0.435;" />
<circle cx = "11156.875757337524" cy = "8261.635480999776" r = "40" style="fill:rgb(250, 216, 22);fill-opacity:0.378;" />
<circle cx = "11156.87575733752" cy = "10599.382061696124" r = "40" style="fill:rgb(250, 216, 22);fill-opacity:0.296;" />
<circle cx = "9538.84176858763" cy = "659.177905390869" r = "40" style="fill:rgb(250, 216, 22);fill-opacity:0.372;" />
<circle cx = "9538.84176858763" cy = "1842.6213483334682" r = "40" style="fill:rgb(250, 216, 22);fill-opacity:0.455;" />
<circle cx = "9538.841768587625" cy = "2414.009461191188" r = "40" style="fill:rgb(250, 216, 22);fill-opacity:0.512;" />
<circle cx = "9538.841768587627" cy = "2786.474508437579" r = "40" style="fill:rgb(250, 216, 22);fill-opacity:0.555;" />
<circle cx = "9538.84176858763" cy = "3065.827641037283" r = "40" style="fill:rgb(250, 216, 22);fill-opacity:0.588;" />
<circle cx = "9538.841768587627" cy = "3293.8320732897414" r = "40" style="fill:rgb(250, 216, 22);fill-opacity:0.613;" />
<circle cx = "9538.841768587627" cy = "3491.1518512878406" r = "40" style="fill:rgb(250, 216, 22);fill-opacity:0.631;" />
<circle cx = "9538.841768587627" cy = "3669.7201950902145" r = "40" style="fill:rgb(250, 216, 22);fill-opacity:0.644;" />
<circle cx = "9538.841768587625" cy = "3837.3814654931657" r = "40" style="fill:rgb(250, 216, 22);fill-opacity:0.652;" />
<circle cx = "9538.84176858763" cy = "4000.0" r = "40" style="fill:rgb(250, 216, 22);fill-opacity:0.655;" />
<circle cx = "9538.841768587625" cy = "4162.618534506834" r = "40" style="fill:rgb(250, 216, 22);fill-opacity:0.652;" />
<circle cx = "9538.841768587627" cy = "4330.2798049097855" r = "40" style="fill:rgb(250, 216, 22);fill-opacity:0.644;" />
<circle cx = "9538.841768587627" cy = "4508.84814871216" r = "40" style="fill:rgb(250, 216, 22);fill-opacity:0.631;" />
<circle cx = "9538.841768587627" cy = "4706.167926710259" r = "40" style="fill:rgb(250, 216, 22);fill-opacity:0.613;" />
<circle cx = "9538.84176858763" cy = "4934.172358962717" r = "40" style="fill:rgb(250, 216, 22);fill-opacity:0.588;" />
<circle cx = "9538.841768587627" cy = "5213.525491562421" r = "40" style="fill:rgb(250, 216, 22);fill-opacity:0.555;" />
<circle cx = "9538.841768587628" cy = "5585.990538808819" r = "40" style="fill:rgb(250, 216, 22);fill-opacity:0.512;" />
<circle cx = "9538.84176858763" cy = "6157.378651666531" r = "40" style="fill:rgb(250, 216, 22);fill-opacity:0.455;" />
<circle cx = "9538.84176858763" cy = "7340.822094609131" r = "40" style="fill:rgb(250, 216, 22);fill-opacity:0.372;" />
<circle cx = "8981.305252752576" cy = "1726.0079164436306" r = "40" style="fill:rgb(250, 216, 22);fill-opacity:0.445;" />
<circle cx = "8981.305252752576" cy = "2531.5404902764885" r = "40" style="fill:rgb(250, 216, 22);fill-opacity:0.527;" />
<circle cx = "8981.305252752572" cy = "2920.4663320246336" r = "40" style="fill:rgb(250, 216, 22);fill-opacity:0.584;" />
<circle cx = "8981.305252752572" cy = "3173.9915257805264" r = "40" style="fill:rgb(250, 216, 22);fill-opacity:0.627;" />
<circle cx = "8981.305252752574" cy = "3364.1383800752988" r = "40" style="fill:rgb(250, 216, 22);fill-opacity:0.66;" />
<circle cx = "8981.305252752574" cy = "3519.333795836734" r = "40" style="fill:rgb(250, 216, 22);fill-opacity:0.685;" />
<circle cx = "8981.305252752576" cy = "3653.6431365887665" r = "40" style="fill:rgb(250, 216, 22);fill-opacity:0.704;" />
<circle cx = "8981.305252752574" cy = "3775.1889683274903" r = "40" style="fill:rgb(250, 216, 22);fill-opacity:0.717;" />
<circle cx = "8981.305252752576" cy = "3889.310699691315" r = "40" style="fill:rgb(250, 216, 22);fill-opacity:0.724;" />
<circle cx = "8981.305252752574" cy = "4000.0" r = "40" style="fill:rgb(250, 216, 22);fill-opacity:0.727;" />
<circle cx = "8981.305252752576" cy = "4110.689300308685" r = "40" style="fill:rgb(250, 216, 22);fill-opacity:0.724;" />
<circle cx = "8981.305252752574" cy = "4224.81103167251" r = "40" style="fill:rgb(250, 216, 22);fill-opacity:0.717;" />
<circle cx = "8981.305252752576" cy = "4346.3568634112335" r = "40" style="fill:rgb(250, 216, 22);fill-opacity:0.704;" />
<circle cx = "8981.305252752574" cy = "4480.666204163266" r = "40" style="fill:rgb(250, 216, 22);fill-opacity:0.685;" />
<circle cx = "8981.305252752574" cy = "4635.861619924702" r = "40" style="fill:rgb(250, 216, 22);fill-opacity:0.66;" />
<circle cx = "8981.305252752576" cy = "4826.008474219476" r = "40" style="fill:rgb(250, 216, 22);fill-opacity:0.627;" />
<circle cx = "8981.305252752576" cy = "5079.53366797537" r = "40" style="fill:rgb(250, 216, 22);fill-opacity:0.584;" />
<circle cx = "8981.305252752576" cy = "5468.4595097235115" r = "40" style="fill:rgb(250, 216, 22);fill-opacity:0.527;" />
<circle cx = "8981.305252752576" cy = "6273.99208355637" r = "40" style="fill:rgb(250, 216, 22);fill-opacity:0.445;" />
<circle cx = "8688.190960235586" cy = "2243.625884808972" r = "40" style="fill:rgb(250, 216, 22);fill-opacity:0.512;" />
<circle cx = "8688.190960235586" cy = "2865.7989221972803" r = "40" style="fill:rgb(250, 216, 22);fill-opacity:0.594;" />
<circle cx = "8688.190960235586" cy = "3166.195430221618" r = "40" style="fill:rgb(250, 216, 22);fill-opacity:0.651;" />
<circle cx = "8688.190960235586" cy = "3362.0118937359707" r = "40" style="fill:rgb(250, 216, 22);fill-opacity:0.694;" />
<circle cx = "8688.190960235588" cy = "3508.8765268115767" r = "40" style="fill:rgb(250, 216, 22);fill-opacity:0.727;" />
<circle cx = "8688.190960235586" cy = "3628.745550547753" r = "40" style="fill:rgb(250, 216, 22);fill-opacity:0.752;" />
<circle cx = "8688.190960235586" cy = "3732.4826968777943" r = "40" style="fill:rgb(250, 216, 22);fill-opacity:0.771;" />
<circle cx = "8688.190960235586" cy = "3826.3616308542883" r = "40" style="fill:rgb(250, 216, 22);fill-opacity:0.784;" />
<circle cx = "8688.190960235586" cy = "3914.506377002538" r = "40" style="fill:rgb(250, 216, 22);fill-opacity:0.791;" />
<circle cx = "8688.190960235586" cy = "4000.0" r = "40" style="fill:rgb(250, 216, 22);fill-opacity:0.794;" />
<circle cx = "8688.190960235586" cy = "4085.493622997462" r = "40" style="fill:rgb(250, 216, 22);fill-opacity:0.791;" />
<circle cx = "8688.190960235586" cy = "4173.638369145712" r = "40" style="fill:rgb(250, 216, 22);fill-opacity:0.784;" />
<circle cx = "8688.190960235586" cy = "4267.517303122206" r = "40" style="fill:rgb(250, 216, 22);fill-opacity:0.771;" />
<circle cx = "8688.190960235586" cy = "4371.254449452247" r = "40" style="fill:rgb(250, 216, 22);fill-opacity:0.752;" />
<circle cx = "8688.190960235588" cy = "4491.123473188423" r = "40" style="fill:rgb(250, 216, 22);fill-opacity:0.727;" />
<circle cx = "8688.190960235586" cy = "4637.988106264029" r = "40" style="fill:rgb(250, 216, 22);fill-opacity:0.694;" />
<circle cx = "8688.190960235586" cy = "4833.804569778382" r = "40" style="fill:rgb(250, 216, 22);fill-opacity:0.651;" />
<circle cx = "8688.190960235586" cy = "5134.20107780272" r = "40" style="fill:rgb(250, 216, 22);fill-opacity:0.594;" />
<circle cx = "8688.190960235586" cy = "5756.374115191028" r = "40" style="fill:rgb(250, 216, 22);fill-opacity:0.512;" />
<circle cx = "8500.0" cy = "2540.007209823138" r = "40" style="fill:rgb(250, 216, 22);fill-opacity:0.571;" />
<circle cx = "8500.000000000002" cy = "3057.1909584179357" r = "40" style="fill:rgb(250, 216, 22);fill-opacity:0.654;" />
<circle cx = "8500.0" cy = "3306.896719916328" r = "40" style="fill:rgb(250, 216, 22);fill-opacity:0.711;" />
<circle cx = "8500.0" cy = "3469.6699141100894" r = "40" style="fill:rgb(250, 216, 22);fill-opacity:0.754;" />
<circle cx = "8500.0" cy = "3591.751709536137" r = "40" style="fill:rgb(250, 216, 22);fill-opacity:0.787;" />
<circle cx = "8500.0" cy = "3691.393300075816" r = "40" style="fill:rgb(250, 216, 22);fill-opacity:0.812;" />
<circle cx = "8500.0" cy = "3777.6252050016697" r = "40" style="fill:rgb(250, 216, 22);fill-opacity:0.831;" />
<circle cx = "8500.0" cy = "3855.6624327025934" r = "40" style="fill:rgb(250, 216, 22);fill-opacity:0.843;" />
<circle cx = "8500.0" cy = "3928.9330945481297" r = "40" style="fill:rgb(250, 216, 22);fill-opacity:0.851;" />
<circle cx = "8500.0" cy = "4000.0" r = "40" style="fill:rgb(250, 216, 22);fill-opacity:0.854;" />
<circle cx = "8500.0" cy = "4071.0669054518703" r = "40" style="fill:rgb(250, 216, 22);fill-opacity:0.851;" />
<circle cx = "8500.0" cy = "4144.337567297406" r = "40" style="fill:rgb(250, 216, 22);fill-opacity:0.843;" />
<circle cx = "8500.0" cy = "4222.374794998331" r = "40" style="fill:rgb(250, 216, 22);fill-opacity:0.831;" />
<circle cx = "8500.0" cy = "4308.606699924184" r = "40" style="fill:rgb(250, 216, 22);fill-opacity:0.812;" />
<circle cx = "8500.0" cy = "4408.248290463864" r = "40" style="fill:rgb(250, 216, 22);fill-opacity:0.787;" />
<circle cx = "8500.0" cy = "4530.330085889911" r = "40" style="fill:rgb(250, 216, 22);fill-opacity:0.754;" />
<circle cx = "8500.0" cy = "4693.103280083672" r = "40" style="fill:rgb(250, 216, 22);fill-opacity:0.711;" />
<circle cx = "8500.0" cy = "4942.809041582064" r = "40" style="fill:rgb(250, 216, 22);fill-opacity:0.654;" />
<circle cx = "8500.0" cy = "5459.992790176862" r = "40" style="fill:rgb(250, 216, 22);fill-opacity:0.571;" />
<circle cx = "8363.27126400268" cy = "2723.9195102259314" r = "40" style="fill:rgb(250, 216, 22);fill-opacity:0.622;" />
<circle cx = "8363.27126400268" cy = "3175.954681666808" r = "40" style="fill:rgb(250, 216, 22);fill-opacity:0.705;" />
<circle cx = "8363.27126400268" cy = "3394.2055200107916" r = "40" style="fill:rgb(250, 216, 22);fill-opacity:0.762;" />
<circle cx = "8363.27126400268" cy = "3536.474508437579" r = "40" style="fill:rgb(250, 216, 22);fill-opacity:0.805;" />
<circle cx = "8363.27126400268" cy = "3643.17791022691" r = "40" style="fill:rgb(250, 216, 22);fill-opacity:0.838;" />
<circle cx = "8363.27126400268" cy = "3730.2678537617257" r = "40" style="fill:rgb(250, 216, 22);fill-opacity:0.863;" />
<circle cx = "8363.27126400268" cy = "3805.637302304416" r = "40" style="fill:rgb(250, 216, 22);fill-opacity:0.881;" />
<circle cx = "8363.27126400268" cy = "3873.8443403221468" r = "40" style="fill:rgb(250, 216, 22);fill-opacity:0.894;" />
<circle cx = "8363.27126400268" cy = "3937.885247019087" r = "40" style="fill:rgb(250, 216, 22);fill-opacity:0.902;" />
<circle cx = "8363.27126400268" cy = "4000.0" r = "40" style="fill:rgb(250, 216, 22);fill-opacity:0.905;" />
<circle cx = "8363.27126400268" cy = "4062.114752980913" r = "40" style="fill:rgb(250, 216, 22);fill-opacity:0.902;" />
<circle cx = "8363.27126400268" cy = "4126.155659677854" r = "40" style="fill:rgb(250, 216, 22);fill-opacity:0.894;" />
<circle cx = "8363.27126400268" cy = "4194.362697695584" r = "40" style="fill:rgb(250, 216, 22);fill-opacity:0.881;" />
<circle cx = "8363.27126400268" cy = "4269.732146238274" r = "40" style="fill:rgb(250, 216, 22);fill-opacity:0.863;" />
<circle cx = "8363.27126400268" cy = "4356.82208977309" r = "40" style="fill:rgb(250, 216, 22);fill-opacity:0.838;" />
<circle cx = "8363.27126400268" cy = "4463.525491562421" r = "40" style="fill:rgb(250, 216, 22);fill-opacity:0.805;" />
<circle cx = "8363.27126400268" cy = "4605.794479989208" r = "40" style="fill:rgb(250, 216, 22);fill-opacity:0.762;" />
<circle cx = "8363.27126400268" cy = "4824.045318333194" r = "40" style="fill:rgb(250, 216, 22);fill-opacity:0.705;" />
<circle cx = "8363.27126400268" cy = "5276.080489774069" r = "40" style="fill:rgb(250, 216, 22);fill-opacity:0.622;" />
<circle cx = "8254.762724747214" cy = "2841.3431614791684" r = "40" style="fill:rgb(250, 216, 22);fill-opacity:0.663;" />
<circle cx = "8254.762724747214" cy = "3251.78250824376" r = "40" style="fill:rgb(250, 216, 22);fill-opacity:0.746;" />
<circle cx = "8254.762724747214" cy = "3449.9501225804815" r = "40" style="fill:rgb(250, 216, 22);fill-opacity:0.803;" />
<circle cx = "8254.762724747214" cy = "3579.1276608871144" r = "40" style="fill:rgb(250, 216, 22);fill-opacity:0.846;" />
<circle cx = "8254.762724747214" cy = "3676.012322291611" r = "40" style="fill:rgb(250, 216, 22);fill-opacity:0.879;" />
<circle cx = "8254.762724747214" cy = "3755.0883362669306" r = "40" style="fill:rgb(250, 216, 22);fill-opacity:0.904;" />
<circle cx = "8254.762724747214" cy = "3823.522363484911" r = "40" style="fill:rgb(250, 216, 22);fill-opacity:0.922;" />
<circle cx = "8254.762724747214" cy = "3885.453058035758" r = "40" style="fill:rgb(250, 216, 22);fill-opacity:0.935;" />
<circle cx = "8254.762724747214" cy = "3943.6009845059934" r = "40" style="fill:rgb(250, 216, 22);fill-opacity:0.943;" />
<circle cx = "8254.762724747214" cy = "4000.0" r = "40" style="fill:rgb(250, 216, 22);fill-opacity:0.946;" />
<circle cx = "8254.762724747214" cy = "4056.3990154940066" r = "40" style="fill:rgb(250, 216, 22);fill-opacity:0.943;" />
<circle cx = "8254.762724747214" cy = "4114.546941964242" r = "40" style="fill:rgb(250, 216, 22);fill-opacity:0.935;" />
<circle cx = "8254.762724747214" cy = "4176.477636515089" r = "40" style="fill:rgb(250, 216, 22);fill-opacity:0.922;" />
<circle cx = "8254.762724747214" cy = "4244.911663733069" r = "40" style="fill:rgb(250, 216, 22);fill-opacity:0.904;" />
<circle cx = "8254.762724747214" cy = "4323.987677708389" r = "40" style="fill:rgb(250, 216, 22);fill-opacity:0.879;" />
<circle cx = "8254.762724747214" cy = "4420.872339112885" r = "40" style="fill:rgb(250, 216, 22);fill-opacity:0.846;" />
<circle cx = "8254.762724747214" cy = "4550.049877419519" r = "40" style="fill:rgb(250, 216, 22);fill-opacity:0.803;" />
<circle cx = "8254.762724747214" cy = "4748.217491756241" r = "40" style="fill:rgb(250, 216, 22);fill-opacity:0.746;" />
<circle cx = "8254.762724747214" cy = "5158.656838520832" r = "40" style="fill:rgb(250, 216, 22);fill-opacity:0.663;" />
<circle cx = "8162.459848116453" cy = "2914.5010998514217" r = "40" style="fill:rgb(250, 216, 22);fill-opacity:0.693;" />
<circle cx = "8162.459848116453" cy = "3299.025183841155" r = "40" style="fill:rgb(250, 216, 22);fill-opacity:0.776;" />
<circle cx = "8162.459848116453" cy = "3484.6804359019766" r = "40" style="fill:rgb(250, 216, 22);fill-opacity:0.833;" />
<circle cx = "8162.459848116453" cy = "3605.70166591065" r = "40" style="fill:rgb(250, 216, 22);fill-opacity:0.876;" />
<circle cx = "8162.459848116453" cy = "3696.469000896657" r = "40" style="fill:rgb(250, 216, 22);fill-opacity:0.909;" />
<circle cx = "8162.459848116453" cy = "3770.5521317638813" r = "40" style="fill:rgb(250, 216, 22);fill-opacity:0.934;" />
<circle cx = "8162.459848116453" cy = "3834.6652140917686" r = "40" style="fill:rgb(250, 216, 22);fill-opacity:0.952;" />
<circle cx = "8162.459848116453" cy = "3892.685586116849" r = "40" style="fill:rgb(250, 216, 22);fill-opacity:0.965;" />
<circle cx = "8162.459848116453" cy = "3947.162035166199" r = "40" style="fill:rgb(250, 216, 22);fill-opacity:0.973;" />
<circle cx = "8162.459848116453" cy = "4000.0" r = "40" style="fill:rgb(250, 216, 22);fill-opacity:0.976;" />
<circle cx = "8162.459848116453" cy = "4052.837964833801" r = "40" style="fill:rgb(250, 216, 22);fill-opacity:0.973;" />
<circle cx = "8162.459848116453" cy = "4107.314413883151" r = "40" style="fill:rgb(250, 216, 22);fill-opacity:0.965;" />
<circle cx = "8162.459848116453" cy = "4165.334785908231" r = "40" style="fill:rgb(250, 216, 22);fill-opacity:0.952;" />
<circle cx = "8162.459848116453" cy = "4229.447868236119" r = "40" style="fill:rgb(250, 216, 22);fill-opacity:0.934;" />
<circle cx = "8162.459848116453" cy = "4303.530999103343" r = "40" style="fill:rgb(250, 216, 22);fill-opacity:0.909;" />
<circle cx = "8162.459848116453" cy = "4394.29833408935" r = "40" style="fill:rgb(250, 216, 22);fill-opacity:0.876;" />
<circle cx = "8162.459848116453" cy = "4515.319564098024" r = "40" style="fill:rgb(250, 216, 22);fill-opacity:0.833;" />
<circle cx = "8162.459848116453" cy = "4700.974816158845" r = "40" style="fill:rgb(250, 216, 22);fill-opacity:0.776;" />
<circle cx = "8162.459848116453" cy = "5085.498900148578" r = "40" style="fill:rgb(250, 216, 22);fill-opacity:0.693;" />
<circle cx = "8079.192220162268" cy = "2954.760565670477" r = "40" style="fill:rgb(250, 216, 22);fill-opacity:0.712;" />
<circle cx = "8079.192220162268" cy = "3325.023249474665" r = "40" style="fill:rgb(250, 216, 22);fill-opacity:0.794;" />
<circle cx = "8079.192220162268" cy = "3503.792837005151" r = "40" style="fill:rgb(250, 216, 22);fill-opacity:0.851;" />
<circle cx = "8079.192220162268" cy = "3620.325577829499" r = "40" style="fill:rgb(250, 216, 22);fill-opacity:0.894;" />
<circle cx = "8079.192220162268" cy = "3707.7264935405938" r = "40" style="fill:rgb(250, 216, 22);fill-opacity:0.927;" />
<circle cx = "8079.192220162268" cy = "3779.0619963130234" r = "40" style="fill:rgb(250, 216, 22);fill-opacity:0.952;" />
<circle cx = "8079.192220162268" cy = "3840.797224139003" r = "40" style="fill:rgb(250, 216, 22);fill-opacity:0.971;" />
<circle cx = "8079.192220162268" cy = "3896.665710810692" r = "40" style="fill:rgb(250, 216, 22);fill-opacity:0.984;" />
<circle cx = "8079.192220162268" cy = "3949.1217130975942" r = "40" style="fill:rgb(250, 216, 22);fill-opacity:0.991;" />
<circle cx = "8079.192220162268" cy = "4000.0" r = "40" style="fill:rgb(250, 216, 22);fill-opacity:0.994;" />
<circle cx = "8079.192220162268" cy = "4050.8782869024058" r = "40" style="fill:rgb(250, 216, 22);fill-opacity:0.991;" />
<circle cx = "8079.192220162268" cy = "4103.334289189308" r = "40" style="fill:rgb(250, 216, 22);fill-opacity:0.984;" />
<circle cx = "8079.192220162268" cy = "4159.202775860997" r = "40" style="fill:rgb(250, 216, 22);fill-opacity:0.971;" />
<circle cx = "8079.192220162268" cy = "4220.938003686977" r = "40" style="fill:rgb(250, 216, 22);fill-opacity:0.952;" />
<circle cx = "8079.192220162268" cy = "4292.273506459406" r = "40" style="fill:rgb(250, 216, 22);fill-opacity:0.927;" />
<circle cx = "8079.192220162268" cy = "4379.674422170501" r = "40" style="fill:rgb(250, 216, 22);fill-opacity:0.894;" />
<circle cx = "8079.192220162268" cy = "4496.207162994849" r = "40" style="fill:rgb(250, 216, 22);fill-opacity:0.851;" />
<circle cx = "8079.192220162268" cy = "4674.976750525335" r = "40" style="fill:rgb(250, 216, 22);fill-opacity:0.794;" />
<circle cx = "8079.192220162268" cy = "5045.2394343295255" r = "40" style="fill:rgb(250, 216, 22);fill-opacity:0.712;" />
<circle cx = "8000.0" cy = "2967.6291975824715" r = "40" style="fill:rgb(250, 216, 22);fill-opacity:0.718;" />
<circle cx = "8000.0" cy = "3333.3333333333335" r = "40" style="fill:rgb(250, 216, 22);fill-opacity:0.8;" />
<circle cx = "8000.0" cy = "3509.9019705901965" r = "40" style="fill:rgb(250, 216, 22);fill-opacity:0.857;" />
<circle cx = "8000.0" cy = "3625.0" r = "40" style="fill:rgb(250, 216, 22);fill-opacity:0.9;" />
<circle cx = "8000.0" cy = "3711.3248654051868" r = "40" style="fill:rgb(250, 216, 22);fill-opacity:0.933;" />
<circle cx = "8000.0" cy = "3781.7821097640076" r = "40" style="fill:rgb(250, 216, 22);fill-opacity:0.958;" />
<circle cx = "8000.0" cy = "3842.7572744917125" r = "40" style="fill:rgb(250, 216, 22);fill-opacity:0.977;" />
<circle cx = "8000.0" cy = "3897.937927384034" r = "40" style="fill:rgb(250, 216, 22);fill-opacity:0.99;" />
<circle cx = "8000.0" cy = "3949.7481092370394" r = "40" style="fill:rgb(250, 216, 22);fill-opacity:0.997;" />
<circle cx = "8000.0" cy = "4000.0" r = "40" style="fill:rgb(250, 216, 22);fill-opacity:1.0;" />
<circle cx = "8000.0" cy = "4050.2518907629606" r = "40" style="fill:rgb(250, 216, 22);fill-opacity:0.997;" />
<circle cx = "8000.0" cy = "4102.062072615966" r = "40" style="fill:rgb(250, 216, 22);fill-opacity:0.99;" />
<circle cx = "8000.0" cy = "4157.242725508288" r = "40" style="fill:rgb(250, 216, 22);fill-opacity:0.977;" />
<circle cx = "8000.0" cy = "4218.217890235992" r = "40" style="fill:rgb(250, 216, 22);fill-opacity:0.958;" />
<circle cx = "8000.0" cy = "4288.675134594812" r = "40" style="fill:rgb(250, 216, 22);fill-opacity:0.933;" />
<circle cx = "8000.0" cy = "4375.0" r = "40" style="fill:rgb(250, 216, 22);fill-opacity:0.9;" />
<circle cx = "8000.0" cy = "4490.0980294098035" r = "40" style="fill:rgb(250, 216, 22);fill-opacity:0.857;" />
<circle cx = "8000.0" cy = "4666.666666666667" r = "40" style="fill:rgb(250, 216, 22);fill-opacity:0.8;" />
<circle cx = "8000.0" cy = "5032.3708024175285" r = "40" style="fill:rgb(250, 216, 22);fill-opacity:0.718;" />
<circle cx = "7920.807779837732" cy = "2954.760565670477" r = "40" style="fill:rgb(250, 216, 22);fill-opacity:0.712;" />
<circle cx = "7920.807779837732" cy = "3325.023249474665" r = "40" style="fill:rgb(250, 216, 22);fill-opacity:0.794;" />
<circle cx = "7920.807779837732" cy = "3503.792837005151" r = "40" style="fill:rgb(250, 216, 22);fill-opacity:0.851;" />
<circle cx = "7920.807779837732" cy = "3620.325577829499" r = "40" style="fill:rgb(250, 216, 22);fill-opacity:0.894;" />
<circle cx = "7920.807779837732" cy = "3707.7264935405938" r = "40" style="fill:rgb(250, 216, 22);fill-opacity:0.927;" />
<circle cx = "7920.807779837732" cy = "3779.0619963130234" r = "40" style="fill:rgb(250, 216, 22);fill-opacity:0.952;" />
<circle cx = "7920.807779837732" cy = "3840.797224139003" r = "40" style="fill:rgb(250, 216, 22);fill-opacity:0.971;" />
<circle cx = "7920.807779837732" cy = "3896.665710810692" r = "40" style="fill:rgb(250, 216, 22);fill-opacity:0.984;" />
<circle cx = "7920.807779837732" cy = "3949.1217130975942" r = "40" style="fill:rgb(250, 216, 22);fill-opacity:0.991;" />
<circle cx = "7920.807779837732" cy = "4000.0" r = "40" style="fill:rgb(250, 216, 22);fill-opacity:0.994;" />
<circle cx = "7920.807779837732" cy = "4050.8782869024058" r = "40" style="fill:rgb(250, 216, 22);fill-opacity:0.991;" />
<circle cx = "7920.807779837732" cy = "4103.334289189308" r = "40" style="fill:rgb(250, 216, 22);fill-opacity:0.984;" />
<circle cx = "7920.807779837732" cy = "4159.202775860997" r = "40" style="fill:rgb(250, 216, 22);fill-opacity:0.971;" />
<circle cx = "7920.807779837732" cy = "4220.938003686977" r = "40" style="fill:rgb(250, 216, 22);fill-opacity:0.952;" />
<circle cx = "7920.807779837732" cy = "4292.273506459406" r = "40" style="fill:rgb(250, 216, 22);fill-opacity:0.927;" />
<circle cx = "7920.807779837732" cy = "4379.674422170501" r = "40" style="fill:rgb(250, 216, 22);fill-opacity:0.894;" />
<circle cx = "7920.807779837732" cy = "4496.207162994849" r = "40" style="fill:rgb(250, 216, 22);fill-opacity:0.851;" />
<circle cx = "7920.807779837732" cy = "4674.976750525336" r = "40" style="fill:rgb(250, 216, 22);fill-opacity:0.794;" />
<circle cx = "7920.807779837732" cy = "5045.2394343295255" r = "40" style="fill:rgb(250, 216, 22);fill-opacity:0.712;" />
<circle cx = "7837.540151883547" cy = "2914.5010998514217" r = "40" style="fill:rgb(250, 216, 22);fill-opacity:0.693;" />
<circle cx = "7837.540151883546" cy = "3299.025183841155" r = "40" style="fill:rgb(250, 216, 22);fill-opacity:0.776;" />
<circle cx = "7837.540151883547" cy = "3484.6804359019766" r = "40" style="fill:rgb(250, 216, 22);fill-opacity:0.833;" />
<circle cx = "7837.540151883547" cy = "3605.70166591065" r = "40" style="fill:rgb(250, 216, 22);fill-opacity:0.876;" />
<circle cx = "7837.540151883546" cy = "3696.469000896657" r = "40" style="fill:rgb(250, 216, 22);fill-opacity:0.909;" />
<circle cx = "7837.540151883547" cy = "3770.5521317638813" r = "40" style="fill:rgb(250, 216, 22);fill-opacity:0.934;" />
<circle cx = "7837.540151883547" cy = "3834.6652140917686" r = "40" style="fill:rgb(250, 216, 22);fill-opacity:0.952;" />
<circle cx = "7837.540151883546" cy = "3892.685586116849" r = "40" style="fill:rgb(250, 216, 22);fill-opacity:0.965;" />
<circle cx = "7837.540151883547" cy = "3947.162035166199" r = "40" style="fill:rgb(250, 216, 22);fill-opacity:0.973;" />
<circle cx = "7837.540151883546" cy = "4000.0" r = "40" style="fill:rgb(250, 216, 22);fill-opacity:0.976;" />
<circle cx = "7837.540151883547" cy = "4052.837964833801" r = "40" style="fill:rgb(250, 216, 22);fill-opacity:0.973;" />
<circle cx = "7837.540151883546" cy = "4107.314413883151" r = "40" style="fill:rgb(250, 216, 22);fill-opacity:0.965;" />
<circle cx = "7837.540151883547" cy = "4165.334785908231" r = "40" style="fill:rgb(250, 216, 22);fill-opacity:0.952;" />
<circle cx = "7837.540151883547" cy = "4229.447868236119" r = "40" style="fill:rgb(250, 216, 22);fill-opacity:0.934;" />
<circle cx = "7837.540151883546" cy = "4303.530999103343" r = "40" style="fill:rgb(250, 216, 22);fill-opacity:0.909;" />
<circle cx = "7837.540151883547" cy = "4394.29833408935" r = "40" style="fill:rgb(250, 216, 22);fill-opacity:0.876;" />
<circle cx = "7837.540151883546" cy = "4515.319564098024" r = "40" style="fill:rgb(250, 216, 22);fill-opacity:0.833;" />
<circle cx = "7837.540151883546" cy = "4700.974816158845" r = "40" style="fill:rgb(250, 216, 22);fill-opacity:0.776;" />
<circle cx = "7837.540151883547" cy = "5085.498900148578" r = "40" style="fill:rgb(250, 216, 22);fill-opacity:0.693;" />
<circle cx = "7745.237275252785" cy = "2841.3431614791684" r = "40" style="fill:rgb(250, 216, 22);fill-opacity:0.663;" />
<circle cx = "7745.237275252785" cy = "3251.78250824376" r = "40" style="fill:rgb(250, 216, 22);fill-opacity:0.746;" />
<circle cx = "7745.237275252786" cy = "3449.9501225804815" r = "40" style="fill:rgb(250, 216, 22);fill-opacity:0.803;" />
<circle cx = "7745.237275252785" cy = "3579.1276608871144" r = "40" style="fill:rgb(250, 216, 22);fill-opacity:0.846;" />
<circle cx = "7745.237275252785" cy = "3676.012322291611" r = "40" style="fill:rgb(250, 216, 22);fill-opacity:0.879;" />
<circle cx = "7745.237275252785" cy = "3755.0883362669306" r = "40" style="fill:rgb(250, 216, 22);fill-opacity:0.904;" />
<circle cx = "7745.237275252785" cy = "3823.522363484911" r = "40" style="fill:rgb(250, 216, 22);fill-opacity:0.922;" />
<circle cx = "7745.237275252785" cy = "3885.453058035758" r = "40" style="fill:rgb(250, 216, 22);fill-opacity:0.935;" />
<circle cx = "7745.237275252786" cy = "3943.6009845059934" r = "40" style="fill:rgb(250, 216, 22);fill-opacity:0.943;" />
<circle cx = "7745.237275252785" cy = "4000.0" r = "40" style="fill:rgb(250, 216, 22);fill-opacity:0.946;" />
<circle cx = "7745.237275252786" cy = "4056.3990154940066" r = "40" style="fill:rgb(250, 216, 22);fill-opacity:0.943;" />
<circle cx = "7745.237275252785" cy = "4114.546941964242" r = "40" style="fill:rgb(250, 216, 22);fill-opacity:0.935;" />
<circle cx = "7745.237275252785" cy = "4176.477636515089" r = "40" style="fill:rgb(250, 216, 22);fill-opacity:0.922;" />
<circle cx = "7745.237275252785" cy = "4244.911663733069" r = "40" style="fill:rgb(250, 216, 22);fill-opacity:0.904;" />
<circle cx = "7745.237275252786" cy = "4323.987677708389" r = "40" style="fill:rgb(250, 216, 22);fill-opacity:0.879;" />
<circle cx = "7745.237275252785" cy = "4420.872339112885" r = "40" style="fill:rgb(250, 216, 22);fill-opacity:0.846;" />
<circle cx = "7745.237275252786" cy = "4550.049877419519" r = "40" style="fill:rgb(250, 216, 22);fill-opacity:0.803;" />
<circle cx = "7745.237275252785" cy = "4748.217491756241" r = "40" style="fill:rgb(250, 216, 22);fill-opacity:0.746;" />
<circle cx = "7745.237275252785" cy = "5158.656838520832" r = "40" style="fill:rgb(250, 216, 22);fill-opacity:0.663;" />
<circle cx = "7636.72873599732" cy = "2723.9195102259314" r = "40" style="fill:rgb(250, 216, 22);fill-opacity:0.622;" />
<circle cx = "7636.728735997319" cy = "3175.954681666806" r = "40" style="fill:rgb(250, 216, 22);fill-opacity:0.705;" />
<circle cx = "7636.72873599732" cy = "3394.2055200107916" r = "40" style="fill:rgb(250, 216, 22);fill-opacity:0.762;" />
<circle cx = "7636.728735997319" cy = "3536.474508437579" r = "40" style="fill:rgb(250, 216, 22);fill-opacity:0.805;" />
<circle cx = "7636.72873599732" cy = "3643.1779102269097" r = "40" style="fill:rgb(250, 216, 22);fill-opacity:0.838;" />
<circle cx = "7636.72873599732" cy = "3730.2678537617257" r = "40" style="fill:rgb(250, 216, 22);fill-opacity:0.863;" />
<circle cx = "7636.72873599732" cy = "3805.637302304416" r = "40" style="fill:rgb(250, 216, 22);fill-opacity:0.881;" />
<circle cx = "7636.72873599732" cy = "3873.8443403221468" r = "40" style="fill:rgb(250, 216, 22);fill-opacity:0.894;" />
<circle cx = "7636.72873599732" cy = "3937.885247019087" r = "40" style="fill:rgb(250, 216, 22);fill-opacity:0.902;" />
<circle cx = "7636.72873599732" cy = "4000.0" r = "40" style="fill:rgb(250, 216, 22);fill-opacity:0.905;" />
<circle cx = "7636.72873599732" cy = "4062.114752980913" r = "40" style="fill:rgb(250, 216, 22);fill-opacity:0.902;" />
<circle cx = "7636.72873599732" cy = "4126.155659677854" r = "40" style="fill:rgb(250, 216, 22);fill-opacity:0.894;" />
<circle cx = "7636.72873599732" cy = "4194.362697695584" r = "40" style="fill:rgb(250, 216, 22);fill-opacity:0.881;" />
<circle cx = "7636.72873599732" cy = "4269.732146238274" r = "40" style="fill:rgb(250, 216, 22);fill-opacity:0.863;" />
<circle cx = "7636.72873599732" cy = "4356.82208977309" r = "40" style="fill:rgb(250, 216, 22);fill-opacity:0.838;" />
<circle cx = "7636.728735997319" cy = "4463.525491562421" r = "40" style="fill:rgb(250, 216, 22);fill-opacity:0.805;" />
<circle cx = "7636.72873599732" cy = "4605.794479989208" r = "40" style="fill:rgb(250, 216, 22);fill-opacity:0.762;" />
<circle cx = "7636.728735997319" cy = "4824.045318333194" r = "40" style="fill:rgb(250, 216, 22);fill-opacity:0.705;" />
<circle cx = "7636.72873599732" cy = "5276.080489774069" r = "40" style="fill:rgb(250, 216, 22);fill-opacity:0.622;" />
<circle cx = "7500.0" cy = "2540.007209823138" r = "40" style="fill:rgb(250, 216, 22);fill-opacity:0.571;" />
<circle cx = "7500.000000000001" cy = "3057.1909584179375" r = "40" style="fill:rgb(250, 216, 22);fill-opacity:0.654;" />
<circle cx = "7500.0" cy = "3306.896719916328" r = "40" style="fill:rgb(250, 216, 22);fill-opacity:0.711;" />
<circle cx = "7500.0" cy = "3469.6699141100894" r = "40" style="fill:rgb(250, 216, 22);fill-opacity:0.754;" />
<circle cx = "7500.0" cy = "3591.751709536137" r = "40" style="fill:rgb(250, 216, 22);fill-opacity:0.787;" />
<circle cx = "7500.0" cy = "3691.393300075816" r = "40" style="fill:rgb(250, 216, 22);fill-opacity:0.812;" />
<circle cx = "7500.0" cy = "3777.6252050016697" r = "40" style="fill:rgb(250, 216, 22);fill-opacity:0.831;" />
<circle cx = "7500.0" cy = "3855.6624327025934" r = "40" style="fill:rgb(250, 216, 22);fill-opacity:0.843;" />
<circle cx = "7500.0" cy = "3928.9330945481297" r = "40" style="fill:rgb(250, 216, 22);fill-opacity:0.851;" />
<circle cx = "7500.000000000001" cy = "4000.0" r = "40" style="fill:rgb(250, 216, 22);fill-opacity:0.854;" />
<circle cx = "7500.0" cy = "4071.0669054518703" r = "40" style="fill:rgb(250, 216, 22);fill-opacity:0.851;" />
<circle cx = "7500.0" cy = "4144.337567297406" r = "40" style="fill:rgb(250, 216, 22);fill-opacity:0.843;" />
<circle cx = "7500.0" cy = "4222.374794998331" r = "40" style="fill:rgb(250, 216, 22);fill-opacity:0.831;" />
<circle cx = "7500.0" cy = "4308.606699924184" r = "40" style="fill:rgb(250, 216, 22);fill-opacity:0.812;" />
<circle cx = "7500.000000000001" cy = "4408.248290463863" r = "40" style="fill:rgb(250, 216, 22);fill-opacity:0.787;" />
<circle cx = "7500.0" cy = "4530.330085889911" r = "40" style="fill:rgb(250, 216, 22);fill-opacity:0.754;" />
<circle cx = "7500.0" cy = "4693.103280083672" r = "40" style="fill:rgb(250, 216, 22);fill-opacity:0.711;" />
<circle cx = "7500.0" cy = "4942.809041582064" r = "40" style="fill:rgb(250, 216, 22);fill-opacity:0.654;" />
<circle cx = "7500.0" cy = "5459.992790176862" r = "40" style="fill:rgb(250, 216, 22);fill-opacity:0.571;" />
<circle cx = "7311.809039764414" cy = "2243.625884808972" r = "40" style="fill:rgb(250, 216, 22);fill-opacity:0.512;" />
<circle cx = "7311.809039764413" cy = "2865.7989221972803" r = "40" style="fill:rgb(250, 216, 22);fill-opacity:0.594;" />
<circle cx = "7311.809039764414" cy = "3166.195430221618" r = "40" style="fill:rgb(250, 216, 22);fill-opacity:0.651;" />
<circle cx = "7311.809039764413" cy = "3362.0118937359694" r = "40" style="fill:rgb(250, 216, 22);fill-opacity:0.694;" />
<circle cx = "7311.809039764413" cy = "3508.8765268115767" r = "40" style="fill:rgb(250, 216, 22);fill-opacity:0.727;" />
<circle cx = "7311.809039764414" cy = "3628.745550547753" r = "40" style="fill:rgb(250, 216, 22);fill-opacity:0.752;" />
<circle cx = "7311.809039764412" cy = "3732.482696877794" r = "40" style="fill:rgb(250, 216, 22);fill-opacity:0.771;" />
<circle cx = "7311.809039764413" cy = "3826.3616308542883" r = "40" style="fill:rgb(250, 216, 22);fill-opacity:0.784;" />
<circle cx = "7311.809039764413" cy = "3914.506377002538" r = "40" style="fill:rgb(250, 216, 22);fill-opacity:0.791;" />
<circle cx = "7311.809039764413" cy = "4000.0" r = "40" style="fill:rgb(250, 216, 22);fill-opacity:0.794;" />
<circle cx = "7311.809039764413" cy = "4085.493622997462" r = "40" style="fill:rgb(250, 216, 22);fill-opacity:0.791;" />
<circle cx = "7311.809039764413" cy = "4173.638369145712" r = "40" style="fill:rgb(250, 216, 22);fill-opacity:0.784;" />
<circle cx = "7311.809039764412" cy = "4267.517303122206" r = "40" style="fill:rgb(250, 216, 22);fill-opacity:0.771;" />
<circle cx = "7311.809039764414" cy = "4371.254449452247" r = "40" style="fill:rgb(250, 216, 22);fill-opacity:0.752;" />
<circle cx = "7311.809039764413" cy = "4491.123473188423" r = "40" style="fill:rgb(250, 216, 22);fill-opacity:0.727;" />
<circle cx = "7311.809039764413" cy = "4637.988106264031" r = "40" style="fill:rgb(250, 216, 22);fill-opacity:0.694;" />
<circle cx = "7311.809039764414" cy = "4833.804569778382" r = "40" style="fill:rgb(250, 216, 22);fill-opacity:0.651;" />
<circle cx = "7311.809039764414" cy = "5134.20107780272" r = "40" style="fill:rgb(250, 216, 22);fill-opacity:0.594;" />
<circle cx = "7311.809039764414" cy = "5756.374115191028" r = "40" style="fill:rgb(250, 216, 22);fill-opacity:0.512;" />
<circle cx = "7018.694747247422" cy = "1726.0079164436306" r = "40" style="fill:rgb(250, 216, 22);fill-opacity:0.445;" />
<circle cx = "7018.694747247424" cy = "2531.5404902764885" r = "40" style="fill:rgb(250, 216, 22);fill-opacity:0.527;" />
<circle cx = "7018.694747247422" cy = "2920.46633202463" r = "40" style="fill:rgb(250, 216, 22);fill-opacity:0.584;" />
<circle cx = "7018.694747247422" cy = "3173.991525780524" r = "40" style="fill:rgb(250, 216, 22);fill-opacity:0.627;" />
<circle cx = "7018.694747247425" cy = "3364.1383800752988" r = "40" style="fill:rgb(250, 216, 22);fill-opacity:0.66;" />
<circle cx = "7018.694747247423" cy = "3519.333795836733" r = "40" style="fill:rgb(250, 216, 22);fill-opacity:0.685;" />
<circle cx = "7018.694747247424" cy = "3653.6431365887665" r = "40" style="fill:rgb(250, 216, 22);fill-opacity:0.704;" />
<circle cx = "7018.694747247423" cy = "3775.18896832749" r = "40" style="fill:rgb(250, 216, 22);fill-opacity:0.717;" />
<circle cx = "7018.694747247424" cy = "3889.310699691315" r = "40" style="fill:rgb(250, 216, 22);fill-opacity:0.724;" />
<circle cx = "7018.694747247423" cy = "4000.0" r = "40" style="fill:rgb(250, 216, 22);fill-opacity:0.727;" />
<circle cx = "7018.694747247424" cy = "4110.689300308685" r = "40" style="fill:rgb(250, 216, 22);fill-opacity:0.724;" />
<circle cx = "7018.694747247423" cy = "4224.81103167251" r = "40" style="fill:rgb(250, 216, 22);fill-opacity:0.717;" />
<circle cx = "7018.694747247424" cy = "4346.3568634112335" r = "40" style="fill:rgb(250, 216, 22);fill-opacity:0.704;" />
<circle cx = "7018.694747247423" cy = "4480.666204163267" r = "40" style="fill:rgb(250, 216, 22);fill-opacity:0.685;" />
<circle cx = "7018.694747247424" cy = "4635.861619924702" r = "40" style="fill:rgb(250, 216, 22);fill-opacity:0.66;" />
<circle cx = "7018.694747247424" cy = "4826.008474219476" r = "40" style="fill:rgb(250, 216, 22);fill-opacity:0.627;" />
<circle cx = "7018.694747247424" cy = "5079.53366797537" r = "40" style="fill:rgb(250, 216, 22);fill-opacity:0.584;" />
<circle cx = "7018.694747247424" cy = "5468.4595097235115" r = "40" style="fill:rgb(250, 216, 22);fill-opacity:0.527;" />
<circle cx = "7018.694747247424" cy = "6273.99208355637" r = "40" style="fill:rgb(250, 216, 22);fill-opacity:0.445;" />
<circle cx = "6461.15823141237" cy = "659.177905390869" r = "40" style="fill:rgb(250, 216, 22);fill-opacity:0.372;" />
<circle cx = "6461.15823141237" cy = "1842.6213483334682" r = "40" style="fill:rgb(250, 216, 22);fill-opacity:0.455;" />
<circle cx = "6461.158231412375" cy = "2414.009461191188" r = "40" style="fill:rgb(250, 216, 22);fill-opacity:0.512;" />
<circle cx = "6461.158231412373" cy = "2786.474508437579" r = "40" style="fill:rgb(250, 216, 22);fill-opacity:0.555;" />
<circle cx = "6461.158231412371" cy = "3065.827641037283" r = "40" style="fill:rgb(250, 216, 22);fill-opacity:0.588;" />
<circle cx = "6461.158231412373" cy = "3293.8320732897414" r = "40" style="fill:rgb(250, 216, 22);fill-opacity:0.613;" />
<circle cx = "6461.158231412373" cy = "3491.1518512878406" r = "40" style="fill:rgb(250, 216, 22);fill-opacity:0.631;" />
<circle cx = "6461.1582314123725" cy = "3669.7201950902145" r = "40" style="fill:rgb(250, 216, 22);fill-opacity:0.644;" />
<circle cx = "6461.158231412375" cy = "3837.3814654931657" r = "40" style="fill:rgb(250, 216, 22);fill-opacity:0.652;" />
<circle cx = "6461.158231412375" cy = "4000.0" r = "40" style="fill:rgb(250, 216, 22);fill-opacity:0.655;" />
<circle cx = "6461.158231412375" cy = "4162.618534506834" r = "40" style="fill:rgb(250, 216, 22);fill-opacity:0.652;" />
<circle cx = "6461.1582314123725" cy = "4330.2798049097855" r = "40" style="fill:rgb(250, 216, 22);fill-opacity:0.644;" />
<circle cx = "6461.158231412373" cy = "4508.84814871216" r = "40" style="fill:rgb(250, 216, 22);fill-opacity:0.631;" />
<circle cx = "6461.158231412373" cy = "4706.167926710259" r = "40" style="fill:rgb(250, 216, 22);fill-opacity:0.613;" />
<circle cx = "6461.158231412376" cy = "4934.172358962714" r = "40" style="fill:rgb(250, 216, 22);fill-opacity:0.588;" />
<circle cx = "6461.158231412373" cy = "5213.525491562421" r = "40" style="fill:rgb(250, 216, 22);fill-opacity:0.555;" />
<circle cx = "6461.158231412378" cy = "5585.990538808812" r = "40" style="fill:rgb(250, 216, 22);fill-opacity:0.512;" />
<circle cx = "6461.15823141237" cy = "6157.378651666531" r = "40" style="fill:rgb(250, 216, 22);fill-opacity:0.455;" />
<circle cx = "6461.15823141237" cy = "7340.822094609131" r = "40" style="fill:rgb(250, 216, 22);fill-opacity:0.372;" />
<circle cx = "4843.1242426624685" cy = "-2599.382061696134" r = "40" style="fill:rgb(250, 216, 22);fill-opacity:0.296;" />
<circle cx = "4843.1242426624685" cy = "-261.6354809997847" r = "40" style="fill:rgb(250, 216, 22);fill-opacity:0.378;" />
<circle cx = "4843.124242662486" cy = "867.0712730486734" r = "40" style="fill:rgb(250, 216, 22);fill-opacity:0.435;" />
<circle cx = "4843.124242662461" cy = "1602.8300419376137" r = "40" style="fill:rgb(250, 216, 22);fill-opacity:0.478;" />
<circle cx = "4843.124242662466" cy = "2154.6577058925322" r = "40" style="fill:rgb(250, 216, 22);fill-opacity:0.511;" />
<circle cx = "4843.124242662473" cy = "2605.052344572069" r = "40" style="fill:rgb(250, 216, 22);fill-opacity:0.536;" />
<circle cx = "4843.124242662479" cy = "2994.8332327671596" r = "40" style="fill:rgb(250, 216, 22);fill-opacity:0.555;" />
<circle cx = "4843.124242662465" cy = "3347.5729751131344" r = "40" style="fill:rgb(250, 216, 22);fill-opacity:0.568;" />
<circle cx = "4843.124242662468" cy = "3678.7671390058626" r = "40" style="fill:rgb(250, 216, 22);fill-opacity:0.576;" />
<circle cx = "4843.12424266248" cy = "4000.0" r = "40" style="fill:rgb(250, 216, 22);fill-opacity:0.578;" />
<circle cx = "4843.124242662468" cy = "4321.232860994138" r = "40" style="fill:rgb(250, 216, 22);fill-opacity:0.576;" />
<circle cx = "4843.124242662465" cy = "4652.427024886865" r = "40" style="fill:rgb(250, 216, 22);fill-opacity:0.568;" />
<circle cx = "4843.124242662479" cy = "5005.16676723284" r = "40" style="fill:rgb(250, 216, 22);fill-opacity:0.555;" />
<circle cx = "4843.124242662473" cy = "5394.947655427931" r = "40" style="fill:rgb(250, 216, 22);fill-opacity:0.536;" />
<circle cx = "4843.124242662466" cy = "5845.342294107468" r = "40" style="fill:rgb(250, 216, 22);fill-opacity:0.511;" />
<circle cx = "4843.124242662461" cy = "6397.169958062386" r = "40" style="fill:rgb(250, 216, 22);fill-opacity:0.478;" />
<circle cx = "4843.124242662458" cy = "7132.928726951354" r = "40" style="fill:rgb(250, 216, 22);fill-opacity:0.435;" />
<circle cx = "4843.1242426624685" cy = "8261.635480999785" r = "40" style="fill:rgb(250, 216, 22);fill-opacity:0.378;" />
<circle cx = "4843.124242662476" cy = "10599.382061696135" r = "40" style="fill:rgb(250, 216, 22);fill-opacity:0.296;" />
</svg>