<svg width="8000" height="5500"><rect width="8000" height="5500" fill="black"/><rect x="100" y="950" width="100" height="4070" fill="gray"/><rect x="100" y="950" width="1000" height="70" fill="gray"/><line x1="1000" y1="1000" x2="11000.0" y2="-4000.0" style="stroke:rgb(196, 185, 118);stroke-width:20" />
<line x1="1000" y1="1000" x2="11000.0" y2="-250.0" style="stroke:rgb(196, 185, 118);stroke-width:20" />
<line x1="1000" y1="1000" x2="11000.0" y2="2250.0" style="stroke:rgb(196, 185, 118);stroke-width:20" />
<line x1="1000" y1="1000" x2="11000.0" y2="4333.333333333334" style="stroke:rgb(196, 185, 118);stroke-width:20" />
<line x1="1000" y1="1000" x2="11000.0" y2="6000.0" style="stroke:rgb(196, 185, 118);stroke-width:20" />
<line x1="1000" y1="1000" x2="11000.0" y2="7666.666666666667" style="stroke:rgb(196, 185, 118);stroke-width:20" />
<line x1="1000" y1="1000" x2="11000.0" y2="9571.42857142857" style="stroke:rgb(196, 185, 118);stroke-width:20" />
<line x1="1000" y1="1000" x2="11000.0" y2="11000.0" style="stroke:rgb(196, 185, 118);stroke-width:20" />
<line x1="1000" y1="1000" x2="11000.0" y2="12666.666666666666" style="stroke:rgb(196, 185, 118);stroke-width:20" />
<line x1="1000" y1="1000" x2="11000.0" y2="16000.0" style="stroke:rgb(196, 185, 118);stroke-width:20" />
<line x1="1000" y1="1000" x2="11000.0" y2="21000.0" style="stroke:rgb(196, 185, 118);stroke-width:20" />
<line x1="1000" y1="1000" x2="11000.0" y2="31000.0" style="stroke:rgb(196, 185, 118);stroke-width:20" />
<line x1="1000" y1="1000" x2="11000.0" y2="81000.0" style="stroke:rgb(196, 185, 118);stroke-width:20" />
<line x1="1000" y1="1000" x2="-9000.0" y2="81000.0" style="stroke:rgb(196, 185, 118);stroke-width:20" />
<line x1="1000" y1="1000" x2="-9000.0" y2="21000.0" style="stroke:rgb(196, 185, 118);stroke-width:20" />
<line x1="1203.6739450944547" y1="898.1630274527727" x2="1163.2203030838318" y2="5000.0" style="stroke:rgb(250, 216, 22);stroke-width:20" /><line x1="1305.5286604738023" y1="961.8089174407747" x2="2686.1409634330607" y2="5000.0" style="stroke:rgb(250, 216, 22);stroke-width:20" /><line x1="1458.3329178796566" y1="1057.2916147349572" x2="4031.00588869189" y2="5000.0" style="stroke:rgb(250, 216, 22);stroke-width:20" /><line x1="1000.0" y1="1000.0" x2="7000.0" y2="5000.0" style="stroke:rgb(250, 216, 22);stroke-width:20" /><line x1="1000.0" y1="1000.0" x2="5666.666666666667" y2="5000.0" style="stroke:rgb(250, 216, 22);stroke-width:20" /><line x1="1000.0" y1="1000.0" x2="5000.0" y2="5000.0" style="stroke:rgb(250, 216, 22);stroke-width:20" /><line x1="1000.0" y1="1000.0" x2="4428.571428571428" y2="5000.0" style="stroke:rgb(250, 216, 22);stroke-width:20" /><line x1="1000.0" y1="1000.0" x2="3666.6666666666665" y2="5000.0" style="stroke:rgb(250, 216, 22);stroke-width:20" /><line x1="1000.0" y1="1000.0" x2="3000.0" y2="5000.0" style="stroke:rgb(250, 216, 22);stroke-width:20" /><line x1="1000.0" y1="1000.0" x2="2333.333333333333" y2="5000.0" style="stroke:rgb(250, 216, 22);stroke-width:20" /><line x1="1000.0" y1="1000.0" x2="1500.0" y2="5000.0" style="stroke:rgb(250, 216, 22);stroke-width:20" /><line x1="1000.0" y1="1000.0" x2="500.0" y2="5000.0" style="stroke:rgb(250, 216, 22);stroke-width:20" /><line x1="853.706462710713" y1="1292.587074578574" x2="2394.3009292181905" y2="5000.0" style="stroke:rgb(250, 216, 22);stroke-width:20" /><rect x="100" y="5000" width="7000" height="50" fill="gray"/><line x1="859" y1="1141" x2="1141" y2="859" style="stroke:gray;stroke-width:40"/><line x1="1141" y1="859" x2="1479.2085555944059" y2="1070.3361609444664" style="stroke:gray;stroke-width:40"/><line x1="859" y1="1141" x2="845.081793681018" y2="1539.565281394231" style="stroke:pink;stroke-width:40"/></svg>