<svg width="8000" height="5500"><rect width="8000" height="5500" fill="black"/><rect x="100" y="950" width="100" height="4070" fill="gray"/><rect x="100" y="950" width="1000" height="70" fill="gray"/><line x1="1000" y1="1000" x2="11000.0" y2="-4000.0" style="stroke:rgb(196, 185, 118);stroke-width:20" />
<line x1="1000" y1="1000" x2="11000.0" y2="-250.0" style="stroke:rgb(196, 185, 118);stroke-width:20" />
<line x1="1000" y1="1000" x2="11000.0" y2="2250.0" style="stroke:rgb(196, 185, 118);stroke-width:20" />
<line x1="1000" y1="1000" x2="11000.0" y2="4333.333333333334" style="stroke:rgb(196, 185, 118);stroke-width:20" />
<line x1="1000" y1="1000" x2="11000.0" y2="6000.0" style="stroke:rgb(196, 185, 118);stroke-width:20" />
<line x1="1000" y1="1000" x2="11000.0" y2="7666.666666666667" style="stroke:rgb(196, 185, 118);stroke-width:20" />
<line x1="1000" y1="1000" x2="11000.0" y2="9571.42857142857" style="stroke:rgb(196, 185, 118);stroke-width:20" />
<line x1="1000" y1="1000" x2="11000.0" y2="11000.0" style="stroke:rgb(196, 185, 118);stroke-width:20" />
<line x1="1000" y1="1000" x2="11000.0" y2="12666.666666666666" style="stroke:rgb(196, 185, 118);stroke-width:20" />
<line x1="1000" y1="1000" x2="11000.0" y2="16000.0" style="stroke:rgb(196, 185, 118);stroke-width:20" />
<line x1="1000" y1="1000" x2="11000.0" y2="21000.0" style="stroke:rgb(196, 185, 118);stroke-width:20" />
<line x1="1000" y1="1000" x2="11000.0" y2="31000.0" style="stroke:rgb(196, 185, 118);stroke-width:20" />
<line x1="1000" y1="1000" x2="11000.0" y2="81000.0" style="stroke:rgb(196, 185, 118);stroke-width:20" />
<line x1="1000" y1="1000" x2="-9000.0" y2="81000.0" style="stroke:rgb(196, 185, 118);stroke-width:20" />
<line x1="1000" y1="1000" x2="-9000.0" y2="21000.0" style="stroke:rgb(196, 185, 118);stroke-width:20" />
<line x1="1250.6666666666667" y1="968.6666666666666" x2="746.75" y2="5000.0" style="stroke:rgb(250, 216, 22);stroke-width:20" /><line x1="1322.2857142857142" y1="1040.2857142857142" x2="1817.25" y2="5000.0" style="stroke:rgb(250, 216, 22);stroke-width:20" /><line x1="1423.0" y1="1141.0" x2="2709.333333333333" y2="5000.0" style="stroke:rgb(250, 216, 22);stroke-width:20" /><line x1="1000.0" y1="1000.0" x2="7000.0" y2="5000.0" style="stroke:rgb(250, 216, 22);stroke-width:20" /><line x1="1000.0" y1="1000.0" x2="5666.666666666667" y2="5000.0" style="stroke:rgb(250, 216, 22);stroke-width:20" /><line x1="1000.0" y1="1000.0" x2="5000.0" y2="5000.0" style="stroke:rgb(250, 216, 22);stroke-width:20" /><line x1="1000.0" y1="1000.0" x2="4428.571428571428" y2="5000.0" style="stroke:rgb(250, 216, 22);stroke-width:20" /><line x1="1000.0" y1="1000.0" x2="3666.6666666666665" y2="5000.0" style="stroke:rgb(250, 216, 22);stroke-width:20" /><line x1="1000.0" y1="1000.0" x2="3000.0" y2="5000.0" style="stroke:rgb(250, 216, 22);stroke-width:20" /><line x1="1000.0" y1="1000.0" x2="2333.333333333333" y2="5000.0" style="stroke:rgb(250, 216, 22);stroke-width:20" /><line x1="1000.0" y1="1000.0" x2="1500.0" y2="5000.0" style="stroke:rgb(250, 216, 22);stroke-width:20" /><line x1="1000.0" y1="1000.0" x2="500.0" y2="5000.0" style="stroke:rgb(250, 216, 22);stroke-width:20" /><line x1="872.8993675936747" y1="1254.2012648126506" x2="4079.4759163119797" y2="5000.0" style="stroke:rgb(250, 216, 22);stroke-width:20" /><rect x="100" y="5000" width="7000" height="50" fill="gray"/><line x1="859" y1="1141" x2="1141" y2="859" style="stroke:gray;stroke-width:40"/><line x1="1141" y1="859" x2="1423.0" y2="1141.0" style="stroke:gray;stroke-width:40"/><line x1="859" y1="1141" x2="907.6024964752598" y2="1536.8355685589308" style="stroke:pink;stroke-width:40"/></svg>