<svg width="12000" height="10000"><rect width="12000" height="10000" fill="black"/><line x1="1000.0" y1="1000.0" x2="-328672.9075500345" y2="376919.9037394885" style="stroke:rgb(250, 216, 22);stroke-opacity:0.065;stroke-width:10"/>
<line x1="1000.0" y1="1000.0" x2="-276785.116509801" y2="416734.80615127244" style="stroke:rgb(250, 216, 22);stroke-opacity:0.195;stroke-width:10"/>
<line x1="1000.0" y1="1000.0" x2="-220144.34510950051" y2="449436.370766344" style="stroke:rgb(250, 216, 22);stroke-opacity:0.321;stroke-width:10"/>
<line x1="1000.0" y1="1000.0" x2="-159719.732651581" y2="474465.06474755297" style="stroke:rgb(250, 216, 22);stroke-opacity:0.442;stroke-width:10"/>
<line x1="1000.0" y1="1000.0" x2="-96545.16100806449" y2="491392.640201615" style="stroke:rgb(250, 216, 22);stroke-opacity:0.556;stroke-width:10"/>
<line x1="1000.0" y1="1000.0" x2="-31701.56461507135" y2="499929.46161930205" style="stroke:rgb(250, 216, 22);stroke-opacity:0.659;stroke-width:10"/>
<line x1="1000.0" y1="1000.0" x2="33701.56461507165" y2="499929.46161930205" style="stroke:rgb(250, 216, 22);stroke-opacity:0.752;stroke-width:10"/>
<line x1="1000.0" y1="1000.0" x2="98545.161008064" y2="491392.640201615" style="stroke:rgb(250, 216, 22);stroke-opacity:0.831;stroke-width:10"/>
<line x1="1000.0" y1="1000.0" x2="161719.73265158047" y2="474465.06474755297" style="stroke:rgb(250, 216, 22);stroke-opacity:0.897;stroke-width:10"/>
<line x1="1000.0" y1="1000.0" x2="222144.34510950051" y2="449436.3707663445" style="stroke:rgb(250, 216, 22);stroke-opacity:0.947;stroke-width:10"/>
<line x1="1000.0" y1="1000.0" x2="6345.4291033543905" y2="9000.0" style="stroke:rgb(250, 216, 22);stroke-opacity:0.981;stroke-width:10"/>
<line x1="1000.0" y1="1000.0" x2="8015.81170394206" y2="9000.0" style="stroke:rgb(250, 216, 22);stroke-opacity:0.998;stroke-width:10"/>
<line x1="1000.0" y1="1000.0" x2="10122.251665340382" y2="9000.0" style="stroke:rgb(250, 216, 22);stroke-opacity:0.998;stroke-width:10"/>
<line x1="1000.0" y1="1000.0" x2="416734.80615127244" y2="278785.116509801" style="stroke:rgb(250, 216, 22);stroke-opacity:0.981;stroke-width:10"/>
<line x1="1000.0" y1="1000.0" x2="449436.370766344" y2="222144.34510950051" style="stroke:rgb(250, 216, 22);stroke-opacity:0.947;stroke-width:10"/>
<line x1="1000.0" y1="1000.0" x2="474465.06474755297" y2="161719.732651581" style="stroke:rgb(250, 216, 22);stroke-opacity:0.897;stroke-width:10"/>
<line x1="1000.0" y1="1000.0" x2="491392.640201615" y2="98545.16100806449" style="stroke:rgb(250, 216, 22);stroke-opacity:0.831;stroke-width:10"/>
<line x1="1000.0" y1="1000.0" x2="499929.46161930205" y2="33701.5646150714" style="stroke:rgb(250, 216, 22);stroke-opacity:0.752;stroke-width:10"/>
<line x1="1000.0" y1="1000.0" x2="499929.46161930205" y2="-31701.564615071602" style="stroke:rgb(250, 216, 22);stroke-opacity:0.659;stroke-width:10"/>
<line x1="1000.0" y1="1000.0" x2="491392.640201615" y2="-96545.161008064" style="stroke:rgb(250, 216, 22);stroke-opacity:0.556;stroke-width:10"/>
<line x1="1000.0" y1="1000.0" x2="474465.06474755297" y2="-159719.73265158047" style="stroke:rgb(250, 216, 22);stroke-opacity:0.442;stroke-width:10"/>
<line x1="1000.0" y1="1000.0" x2="449436.3707663445" y2="-220144.34510950051" style="stroke:rgb(250, 216, 22);stroke-opacity:0.321;stroke-width:10"/>
<line x1="1000.0" y1="1000.0" x2="1219.4957027440132" y2="853.337660311366" style="stroke:rgb(250, 216, 22);stroke-opacity:0.195;stroke-width:10"/>
<line x1="1219.4957027440132" y1="853.337660311366" x2="13602.928815614017" y2="-3715.152008513099" style="stroke:rgb(250, 216, 22);stroke-opacity:0.195;stroke-width:10"/>
<line x1="1000.0" y1="1000.0" x2="1094.7709811829213" y2="916.8880801278484" style="stroke:rgb(250, 216, 22);stroke-opacity:0.065;stroke-width:10"/>
<line x1="1094.7709811829213" y1="916.8880801278484" x2="7241.968015998336" y2="-474.08059787249374" style="stroke:rgb(250, 216, 22);stroke-opacity:0.065;stroke-width:10"/>
<rect x="5000" y="9000" width="6000" height="50" fill="gray"/><rect x="5000" y="9000" width="1000.0" height="50" style="fill:rgb(250, 6, 22);fill-opacity:0;"/><rect x="6000.0" y="9000" width="1000.0" height="50" style="fill:rgb(250, 6, 22);fill-opacity:0.981;"/><rect x="7000.0" y="9000" width="1000.0" height="50" style="fill:rgb(250, 6, 22);fill-opacity:0;"/><rect x="8000.0" y="9000" width="1000.0" height="50" style="fill:rgb(250, 6, 22);fill-opacity:0.998;"/><rect x="9000.0" y="9000" width="1000.0" height="50" style="fill:rgb(250, 6, 22);fill-opacity:0;"/><rect x="10000.0" y="9000" width="1000.0" height="50" style="fill:rgb(250, 6, 22);fill-opacity:0.998;"/><line x1="929" y1="1071" x2="1071" y2="929" style="stroke:gray;stroke-width:20"/><line x1="1071" y1="929" x2="1380.932770659691" y2="771.081365716568" style="stroke:gray;stroke-width:20"/><line x1="929" y1="1071" x2="604.44813858887" y2="1407.083290888381" style="stroke:gray;stroke-width:20"/></svg>