<svg width="8000" height="5500"><rect width="8000" height="5500" fill="black"/><rect x="100" y="950" width="100" height="4070" fill="gray"/><rect x="100" y="950" width="1000" height="70" fill="gray"/><line x1="1000" y1="1000" x2="11000.0" y2="-4000.0" style="stroke:rgb(196, 185, 118);stroke-width:20;stroke-dasharray:50,50" />
<line x1="1000" y1="1000" x2="11000.0" y2="-250.0" style="stroke:rgb(196, 185, 118);stroke-width:20;stroke-dasharray:50,50" />
<line x1="1000" y1="1000" x2="11000.0" y2="2250.0" style="stroke:rgb(196, 185, 118);stroke-width:20;stroke-dasharray:50,50" />
<line x1="1000" y1="1000" x2="11000.0" y2="4333.333333333334" style="stroke:rgb(196, 185, 118);stroke-width:20;stroke-dasharray:50,50" />
<line x1="1000" y1="1000" x2="11000.0" y2="6000.0" style="stroke:rgb(196, 185, 118);stroke-width:20;stroke-dasharray:50,50" />
<line x1="1000" y1="1000" x2="11000.0" y2="7666.666666666667" style="stroke:rgb(196, 185, 118);stroke-width:20;stroke-dasharray:50,50" />
<line x1="1000" y1="1000" x2="11000.0" y2="9571.42857142857" style="stroke:rgb(196, 185, 118);stroke-width:20;stroke-dasharray:50,50" />
<line x1="1000" y1="1000" x2="11000.0" y2="11000.0" style="stroke:rgb(196, 185, 118);stroke-width:20;stroke-dasharray:50,50" />
<line x1="1000" y1="1000" x2="11000.0" y2="12666.666666666666" style="stroke:rgb(196, 185, 118);stroke-width:20;stroke-dasharray:50,50" />
<line x1="1000" y1="1000" x2="11000.0" y2="16000.0" style="stroke:rgb(196, 185, 118);stroke-width:20;stroke-dasharray:50,50" />
<line x1="1000" y1="1000" x2="11000.0" y2="21000.0" style="stroke:rgb(196, 185, 118);stroke-width:20;stroke-dasharray:50,50" />
<line x1="1000" y1="1000" x2="11000.0" y2="31000.0" style="stroke:rgb(196, 185, 118);stroke-width:20;stroke-dasharray:50,50" />
<line x1="1000" y1="1000" x2="11000.0" y2="81000.0" style="stroke:rgb(196, 185, 118);stroke-width:20;stroke-dasharray:50,50" />
<line x1="1000" y1="1000" x2="-9000.0" y2="81000.0" style="stroke:rgb(196, 185, 118);stroke-width:20;stroke-dasharray:50,50" />
<line x1="1000" y1="1000" x2="-9000.0" y2="21000.0" style="stroke:rgb(196, 185, 118);stroke-width:20;stroke-dasharray:50,50" />
<line x1="1152.423882762231" y1="923.7880586188845" x2="-540.5522870127841" y2="728.950451588794" style="stroke:rgb(196, 185, 118);stroke-width:20" />
<line x1="1162.2851969313213" y1="979.7143503835848" x2="-432.0778311527904" y2="1344.1396610004977" style="stroke:rgb(196, 185, 118);stroke-width:20" />
<line x1="1169.6002415958976" y1="1021.2000301994872" x2="-351.6123398424518" y2="1800.4821389754234" style="stroke:rgb(196, 185, 118);stroke-width:20" />
<line x1="1176.219523096384" y1="1058.739841032128" x2="-278.8002433371007" y2="2213.4200581344726" style="stroke:rgb(196, 185, 118);stroke-width:20" />
<line x1="1181.8989506620308" y1="1090.9494753310153" x2="-216.3265401149872" y2="2567.7260354222326" style="stroke:rgb(196, 185, 118);stroke-width:20" />
<line x1="1187.9566575686504" y1="1125.3044383791002" x2="-149.69176414217077" y2="2945.630628951167" style="stroke:rgb(196, 185, 118);stroke-width:20" />
<line x1="1195.393349443849" y1="1167.4800138090136" x2="-67.8881535149842" y2="3409.5619586802136" style="stroke:rgb(196, 185, 118);stroke-width:20" />
<line x1="1201.3688689506384" y1="1201.3688689506384" x2="-2.1574389403021996" y2="3782.339365238087" style="stroke:rgb(196, 185, 118);stroke-width:20" />
<line x1="1208.8193340889206" y1="1243.622556437074" x2="79.79767758080288" y2="4247.1299275888805" style="stroke:rgb(196, 185, 118);stroke-width:20" />
<line x1="1000.0" y1="1000.0" x2="3666.6666666666665" y2="5000.0" style="stroke:rgb(250, 216, 22);stroke-width:20" /><line x1="1000.0" y1="1000.0" x2="3000.0" y2="5000.0" style="stroke:rgb(250, 216, 22);stroke-width:20" /><line x1="1000.0" y1="1000.0" x2="2333.333333333333" y2="5000.0" style="stroke:rgb(250, 216, 22);stroke-width:20" /><line x1="1000.0" y1="1000.0" x2="1500.0" y2="5000.0" style="stroke:rgb(250, 216, 22);stroke-width:20" /><line x1="1000.0" y1="1000.0" x2="500.0" y2="5000.0" style="stroke:rgb(250, 216, 22);stroke-width:20" /><line x1="865.6884438960105" y1="1268.623112207979" x2="3248.7978477971533" y2="5000.0" style="stroke:rgb(250, 216, 22);stroke-width:20" /><line x1="865.6884438960105" y1="1268.623112207979" x2="1000" y2="1000" style="stroke:rgb(250, 216, 22);stroke-width:20" /><rect x="100" y="5000" width="7000" height="50" fill="gray"/><line x1="859" y1="1141" x2="1141" y2="859" style="stroke:gray;stroke-width:40"/><line x1="1141" y1="859" x2="1210.252321438501" y2="1251.749431540491" style="stroke:gray;stroke-width:40"/><line x1="859" y1="1141" x2="879.872009791427" y2="1539.261671777823" style="stroke:gray;stroke-width:40"/></svg>