<svg width="8000" height="5500"><rect width="8000" height="5500" fill="black"/><rect x="100" y="950" width="100" height="4070" fill="gray"/><rect x="100" y="950" width="1000" height="70" fill="gray"/><line x1="1000" y1="1000" x2="11000.0" y2="-4000.0" style="stroke:rgb(196, 185, 118);stroke-width:20;stroke-dasharray:50,50" />
<line x1="1000" y1="1000" x2="11000.0" y2="-250.0" style="stroke:rgb(196, 185, 118);stroke-width:20;stroke-dasharray:50,50" />
<line x1="1000" y1="1000" x2="11000.0" y2="2250.0" style="stroke:rgb(196, 185, 118);stroke-width:20;stroke-dasharray:50,50" />
<line x1="1000" y1="1000" x2="11000.0" y2="4333.333333333334" style="stroke:rgb(196, 185, 118);stroke-width:20;stroke-dasharray:50,50" />
<line x1="1000" y1="1000" x2="11000.0" y2="6000.0" style="stroke:rgb(196, 185, 118);stroke-width:20;stroke-dasharray:50,50" />
<line x1="1000" y1="1000" x2="11000.0" y2="7666.666666666667" style="stroke:rgb(196, 185, 118);stroke-width:20;stroke-dasharray:50,50" />
<line x1="1000" y1="1000" x2="11000.0" y2="9571.42857142857" style="stroke:rgb(196, 185, 118);stroke-width:20;stroke-dasharray:50,50" />
<line x1="1000" y1="1000" x2="11000.0" y2="11000.0" style="stroke:rgb(196, 185, 118);stroke-width:20;stroke-dasharray:50,50" />
<line x1="1000" y1="1000" x2="11000.0" y2="12666.666666666666" style="stroke:rgb(196, 185, 118);stroke-width:20;stroke-dasharray:50,50" />
<line x1="1000" y1="1000" x2="11000.0" y2="16000.0" style="stroke:rgb(196, 185, 118);stroke-width:20;stroke-dasharray:50,50" />
<line x1="1000" y1="1000" x2="11000.0" y2="21000.0" style="stroke:rgb(196, 185, 118);stroke-width:20;stroke-dasharray:50,50" />
<line x1="1000" y1="1000" x2="11000.0" y2="31000.0" style="stroke:rgb(196, 185, 118);stroke-width:20;stroke-dasharray:50,50" />
<line x1="1000" y1="1000" x2="11000.0" y2="81000.0" style="stroke:rgb(196, 185, 118);stroke-width:20;stroke-dasharray:50,50" />
<line x1="1000" y1="1000" x2="-9000.0" y2="81000.0" style="stroke:rgb(196, 185, 118);stroke-width:20;stroke-dasharray:50,50" />
<line x1="1000" y1="1000" x2="-9000.0" y2="21000.0" style="stroke:rgb(196, 185, 118);stroke-width:20;stroke-dasharray:50,50" />
<line x1="1145.7632990824336" y1="927.1183504587832" x2="-399.11575937253974" y2="408.2579504746964" style="stroke:rgb(196, 185, 118);stroke-width:20" />
<line x1="1149.5524646005586" y1="981.3059419249302" x2="-357.43493867316374" y2="1004.3214566023127" style="stroke:rgb(196, 185, 118);stroke-width:20" />
<line x1="1152.1899502377812" y1="1019.0237437797226" x2="-328.42259666371433" y2="1419.2172770050302" style="stroke:rgb(196, 185, 118);stroke-width:20" />
<line x1="1154.459978439071" y1="1051.4866594796904" x2="-303.4522864495275" y2="1776.3093497046746" style="stroke:rgb(196, 185, 118);stroke-width:20" />
<line x1="1156.3253470568598" y1="1078.1626735284299" x2="-282.9332316538521" y2="2069.745504240809" style="stroke:rgb(196, 185, 118);stroke-width:20" />
<line x1="1158.2363214805716" y1="1105.4908809870478" x2="-261.9125129930196" y2="2370.355786285607" style="stroke:rgb(196, 185, 118);stroke-width:20" />
<line x1="1160.4783119777617" y1="1137.5528388380815" x2="-237.25061752392935" y2="2723.0373226469774" style="stroke:rgb(196, 185, 118);stroke-width:20" />
<line x1="1162.2019454181627" y1="1162.2019454181627" x2="-218.29064967951967" y2="2994.1774950278696" style="stroke:rgb(196, 185, 118);stroke-width:20" />
<line x1="1164.260241322952" y1="1191.6369482101106" x2="-195.64939472683773" y2="3317.9625257392972" style="stroke:rgb(196, 185, 118);stroke-width:20" />
<line x1="1168.5376291304506" y1="1252.8064436956756" x2="-148.59812884435337" y2="3990.8269760805133" style="stroke:rgb(196, 185, 118);stroke-width:20" />
<line x1="1000.0" y1="1000.0" x2="3000.0" y2="5000.0" style="stroke:rgb(250, 216, 22);stroke-width:20" /><line x1="1000.0" y1="1000.0" x2="2333.333333333333" y2="5000.0" style="stroke:rgb(250, 216, 22);stroke-width:20" /><line x1="1000.0" y1="1000.0" x2="1500.0" y2="5000.0" style="stroke:rgb(250, 216, 22);stroke-width:20" /><line x1="948.0980498483963" y1="1415.2156012128296" x2="4305.61695312208" y2="5000.0" style="stroke:rgb(250, 216, 22);stroke-width:20" /><line x1="948.0980498483963" y1="1415.2156012128296" x2="1000" y2="1000" style="stroke:rgb(250, 216, 22);stroke-width:20" /><line x1="886.7685678848823" y1="1226.4628642302355" x2="3133.945414534767" y2="2393.02826286888" style="stroke:rgb(196, 185, 118);stroke-width:20" />
<rect x="100" y="5000" width="7000" height="50" fill="gray"/><line x1="859" y1="1141" x2="1141" y2="859" style="stroke:gray;stroke-width:40"/><line x1="1141" y1="859" x2="1168.819455447499" y2="1256.836747798145" style="stroke:gray;stroke-width:40"/><line x1="859" y1="1141" x2="982.2385188945675" y2="1520.289160747672" style="stroke:gray;stroke-width:40"/></svg>