<svg width="12000" height="10000"><rect width="12000" height="10000" fill="black"/><line x1="1000.0" y1="1000.0" x2="929.6450370607951" y2="1080.2244597296403" style="stroke:rgb(250, 216, 22);stroke-opacity:0.065;stroke-width:10"/>
<line x1="929.6450370607951" y1="1080.2244597296403" x2="10120.997002089814" y2="9000.0" style="stroke:rgb(250, 216, 22);stroke-opacity:0.065;stroke-width:10"/>
<line x1="1000.0" y1="1000.0" x2="931.231968222488" y2="1102.9186326453878" style="stroke:rgb(250, 216, 22);stroke-opacity:0.195;stroke-width:10"/>
<line x1="931.231968222488" y1="1102.9186326453878" x2="7979.646571728491" y2="9000.0" style="stroke:rgb(250, 216, 22);stroke-opacity:0.195;stroke-width:10"/>
<line x1="1000.0" y1="1000.0" x2="933.4691129630021" y2="1134.9112929474372" style="stroke:rgb(250, 216, 22);stroke-opacity:0.321;stroke-width:10"/>
<line x1="933.4691129630021" y1="1134.9112929474372" x2="6288.617402379915" y2="9000.0" style="stroke:rgb(250, 216, 22);stroke-opacity:0.321;stroke-width:10"/>
<line x1="1000.0" y1="1000.0" x2="937.010824483885" y2="1185.560127385136" style="stroke:rgb(250, 216, 22);stroke-opacity:0.442;stroke-width:10"/>
<line x1="937.010824483885" y1="1185.560127385136" x2="5347.068201118944" y2="9934.953632266273" style="stroke:rgb(250, 216, 22);stroke-opacity:0.442;stroke-width:10"/>
<line x1="1000.0" y1="1000.0" x2="943.7941338416732" y2="1282.565970626895" style="stroke:rgb(250, 216, 22);stroke-opacity:0.556;stroke-width:10"/>
<line x1="943.7941338416732" y1="1282.565970626895" x2="5693.0169783661395" y2="14882.251637595986" style="stroke:rgb(250, 216, 22);stroke-opacity:0.556;stroke-width:10"/>
<line x1="1000.0" y1="1000.0" x2="-31701.56461507135" y2="499929.46161930205" style="stroke:rgb(250, 216, 22);stroke-opacity:0.659;stroke-width:10"/>
<line x1="1000.0" y1="1000.0" x2="33701.56461507165" y2="499929.46161930205" style="stroke:rgb(250, 216, 22);stroke-opacity:0.752;stroke-width:10"/>
<line x1="1000.0" y1="1000.0" x2="98545.161008064" y2="491392.640201615" style="stroke:rgb(250, 216, 22);stroke-opacity:0.831;stroke-width:10"/>
<line x1="1000.0" y1="1000.0" x2="161719.73265158047" y2="474465.06474755297" style="stroke:rgb(250, 216, 22);stroke-opacity:0.897;stroke-width:10"/>
<line x1="1000.0" y1="1000.0" x2="222144.34510950051" y2="449436.3707663445" style="stroke:rgb(250, 216, 22);stroke-opacity:0.947;stroke-width:10"/>
<line x1="1000.0" y1="1000.0" x2="6345.4291033543905" y2="9000.0" style="stroke:rgb(250, 216, 22);stroke-opacity:0.981;stroke-width:10"/>
<line x1="1000.0" y1="1000.0" x2="8015.81170394206" y2="9000.0" style="stroke:rgb(250, 216, 22);stroke-opacity:0.998;stroke-width:10"/>
<line x1="1000.0" y1="1000.0" x2="10122.251665340382" y2="9000.0" style="stroke:rgb(250, 216, 22);stroke-opacity:0.998;stroke-width:10"/>
<line x1="1000.0" y1="1000.0" x2="416734.80615127244" y2="278785.116509801" style="stroke:rgb(250, 216, 22);stroke-opacity:0.981;stroke-width:10"/>
<line x1="1000.0" y1="1000.0" x2="449436.370766344" y2="222144.34510950051" style="stroke:rgb(250, 216, 22);stroke-opacity:0.947;stroke-width:10"/>
<line x1="1000.0" y1="1000.0" x2="474465.06474755297" y2="161719.732651581" style="stroke:rgb(250, 216, 22);stroke-opacity:0.897;stroke-width:10"/>
<line x1="1000.0" y1="1000.0" x2="491392.640201615" y2="98545.16100806449" style="stroke:rgb(250, 216, 22);stroke-opacity:0.831;stroke-width:10"/>
<line x1="1000.0" y1="1000.0" x2="499929.46161930205" y2="33701.5646150714" style="stroke:rgb(250, 216, 22);stroke-opacity:0.752;stroke-width:10"/>
<line x1="1000.0" y1="1000.0" x2="1423.2917770294985" y2="972.2559911522709" style="stroke:rgb(250, 216, 22);stroke-opacity:0.659;stroke-width:10"/>
<line x1="1423.2917770294985" y1="972.2559911522709" x2="21623.607727405382" y2="7438.428106424425" style="stroke:rgb(250, 216, 22);stroke-opacity:0.659;stroke-width:10"/>
<line x1="1000.0" y1="1000.0" x2="1247.8037457481912" y2="950.7087702876804" style="stroke:rgb(250, 216, 22);stroke-opacity:0.556;stroke-width:10"/>
<line x1="1247.8037457481912" y1="950.7087702876804" x2="12673.718132058724" y2="6339.519842330311" style="stroke:rgb(250, 216, 22);stroke-opacity:0.556;stroke-width:10"/>
<line x1="1000.0" y1="1000.0" x2="1172.459993438919" y2="941.4577207436092" style="stroke:rgb(250, 216, 22);stroke-opacity:0.442;stroke-width:10"/>
<line x1="1172.459993438919" y1="941.4577207436092" x2="8831.186764285834" y2="5867.716315582679" style="stroke:rgb(250, 216, 22);stroke-opacity:0.442;stroke-width:10"/>
<line x1="1000.0" y1="1000.0" x2="1129.4265671669943" y2="936.1738803946635" style="stroke:rgb(250, 216, 22);stroke-opacity:0.321;stroke-width:10"/>
<line x1="1129.4265671669943" y1="936.1738803946635" x2="10654.802685484345" y2="9000.0" style="stroke:rgb(250, 216, 22);stroke-opacity:0.321;stroke-width:10"/>
<line x1="1000.0" y1="1000.0" x2="1100.7856041125694" y2="932.6572123221896" style="stroke:rgb(250, 216, 22);stroke-opacity:0.195;stroke-width:10"/>
<line x1="1100.7856041125694" y1="932.6572123221896" x2="8428.643857257712" y2="9000.0" style="stroke:rgb(250, 216, 22);stroke-opacity:0.195;stroke-width:10"/>
<line x1="1000.0" y1="1000.0" x2="1079.7367590041456" y2="930.0727391180385" style="stroke:rgb(250, 216, 22);stroke-opacity:0.065;stroke-width:10"/>
<line x1="1079.7367590041456" y1="930.0727391180385" x2="6678.044500052591" y2="9000.0" style="stroke:rgb(250, 216, 22);stroke-opacity:0.065;stroke-width:10"/>
<rect x="5000" y="9000" width="6000" height="50" fill="gray"/><rect x="5000" y="9000" width="1000.0" height="50" style="fill:rgb(250, 6, 22);fill-opacity:0;"/><rect x="6000.0" y="9000" width="1000.0" height="50" style="fill:rgb(250, 6, 22);fill-opacity:1.368;"/><rect x="7000.0" y="9000" width="1000.0" height="50" style="fill:rgb(250, 6, 22);fill-opacity:0.195;"/><rect x="8000.0" y="9000" width="1000.0" height="50" style="fill:rgb(250, 6, 22);fill-opacity:1.193;"/><rect x="9000.0" y="9000" width="1000.0" height="50" style="fill:rgb(250, 6, 22);fill-opacity:0;"/><rect x="10000.0" y="9000" width="1000.0" height="50" style="fill:rgb(250, 6, 22);fill-opacity:1.385;"/><line x1="929" y1="1071" x2="1071" y2="929" style="stroke:gray;stroke-width:20"/><line x1="1071" y1="929" x2="1590.9835132682829" y2="992.8459473533958" style="stroke:gray;stroke-width:20"/><line x1="929" y1="1071" x2="959.4258248200141" y2="1506.109566336203" style="stroke:gray;stroke-width:20"/></svg>