<svg width="8000" height="5500"><rect width="8000" height="5500" fill="black"/><rect x="100" y="950" width="100" height="4070" fill="gray"/><rect x="100" y="950" width="1000" height="70" fill="gray"/><line x1="1000" y1="1000" x2="11000.0" y2="-4000.0" style="stroke:rgb(196, 185, 118);stroke-width:20" />
<line x1="1000" y1="1000" x2="11000.0" y2="-250.0" style="stroke:rgb(196, 185, 118);stroke-width:20" />
<line x1="1000" y1="1000" x2="11000.0" y2="2250.0" style="stroke:rgb(196, 185, 118);stroke-width:20" />
<line x1="1000" y1="1000" x2="11000.0" y2="4333.333333333334" style="stroke:rgb(196, 185, 118);stroke-width:20" />
<line x1="1000" y1="1000" x2="11000.0" y2="6000.0" style="stroke:rgb(196, 185, 118);stroke-width:20" />
<line x1="1000" y1="1000" x2="11000.0" y2="7666.666666666667" style="stroke:rgb(196, 185, 118);stroke-width:20" />
<line x1="1000" y1="1000" x2="11000.0" y2="9571.42857142857" style="stroke:rgb(196, 185, 118);stroke-width:20" />
<line x1="1000" y1="1000" x2="11000.0" y2="11000.0" style="stroke:rgb(196, 185, 118);stroke-width:20" />
<line x1="1000" y1="1000" x2="11000.0" y2="12666.666666666666" style="stroke:rgb(196, 185, 118);stroke-width:20" />
<line x1="1000" y1="1000" x2="11000.0" y2="16000.0" style="stroke:rgb(196, 185, 118);stroke-width:20" />
<line x1="1000" y1="1000" x2="11000.0" y2="21000.0" style="stroke:rgb(196, 185, 118);stroke-width:20" />
<line x1="1000" y1="1000" x2="11000.0" y2="31000.0" style="stroke:rgb(196, 185, 118);stroke-width:20" />
<line x1="1000" y1="1000" x2="11000.0" y2="81000.0" style="stroke:rgb(196, 185, 118);stroke-width:20" />
<line x1="1000" y1="1000" x2="-9000.0" y2="81000.0" style="stroke:rgb(196, 185, 118);stroke-width:20" />
<line x1="1000" y1="1000" x2="-9000.0" y2="21000.0" style="stroke:rgb(196, 185, 118);stroke-width:20" />
<line x1="1198.4786429253693" y1="900.7606785373154" x2="581.0843589175463" y2="5000.0" style="stroke:rgb(250, 216, 22);stroke-width:20" /><line x1="1285.8841319634282" y1="964.2644835045714" x2="2061.217034116671" y2="5000.0" style="stroke:rgb(250, 216, 22);stroke-width:20" /><line x1="1404.6970664833632" y1="1050.5871333104203" x2="3256.8404364044927" y2="5000.0" style="stroke:rgb(250, 216, 22);stroke-width:20" /><line x1="1000.0" y1="1000.0" x2="7000.0" y2="5000.0" style="stroke:rgb(250, 216, 22);stroke-width:20" /><line x1="1000.0" y1="1000.0" x2="5666.666666666667" y2="5000.0" style="stroke:rgb(250, 216, 22);stroke-width:20" /><line x1="1000.0" y1="1000.0" x2="5000.0" y2="5000.0" style="stroke:rgb(250, 216, 22);stroke-width:20" /><line x1="1000.0" y1="1000.0" x2="4428.571428571428" y2="5000.0" style="stroke:rgb(250, 216, 22);stroke-width:20" /><line x1="1000.0" y1="1000.0" x2="3666.6666666666665" y2="5000.0" style="stroke:rgb(250, 216, 22);stroke-width:20" /><line x1="1000.0" y1="1000.0" x2="3000.0" y2="5000.0" style="stroke:rgb(250, 216, 22);stroke-width:20" /><line x1="1000.0" y1="1000.0" x2="2333.333333333333" y2="5000.0" style="stroke:rgb(250, 216, 22);stroke-width:20" /><line x1="1000.0" y1="1000.0" x2="1500.0" y2="5000.0" style="stroke:rgb(250, 216, 22);stroke-width:20" /><line x1="1000.0" y1="1000.0" x2="500.0" y2="5000.0" style="stroke:rgb(250, 216, 22);stroke-width:20" /><line x1="853.706462710713" y1="1292.587074578574" x2="2394.3009292181905" y2="5000.0" style="stroke:rgb(250, 216, 22);stroke-width:20" /><rect x="100" y="5000" width="7000" height="50" fill="gray"/><line x1="859" y1="1141" x2="1141" y2="859" style="stroke:gray;stroke-width:40"/><line x1="1141" y1="859" x2="1463.642631189174" y2="1093.4135929064837" style="stroke:gray;stroke-width:40"/><line x1="859" y1="1141" x2="845.081793681018" y2="1539.565281394231" style="stroke:pink;stroke-width:40"/></svg>