<svg width="12000" height="10000"><rect width="12000" height="10000" fill="black"/><line x1="1000.0" y1="1000.0" x2="923.3535249087956" y2="1087.398554380401" style="stroke:rgb(250, 216, 22);stroke-opacity:0.065;stroke-width:10"/>
<line x1="923.3535249087956" y1="1087.398554380401" x2="1252.8697082463461" y2="6890.362686110406" style="stroke:rgb(250, 216, 22);stroke-opacity:0.065;stroke-width:10"/>
<line x1="1000.0" y1="1000.0" x2="903.9510649163909" y2="1143.747389744013" style="stroke:rgb(250, 216, 22);stroke-opacity:0.195;stroke-width:10"/>
<line x1="903.9510649163909" y1="1143.747389744013" x2="263.34424863370134" y2="9764.153289654607" style="stroke:rgb(250, 216, 22);stroke-opacity:0.195;stroke-width:10"/>
<line x1="1000.0" y1="1000.0" x2="845.7357347939028" y2="1312.816984733231" style="stroke:rgb(250, 216, 22);stroke-opacity:0.321;stroke-width:10"/>
<line x1="845.7357347939028" y1="1312.816984733231" x2="-2705.6375876131897" y2="18386.70263410474" style="stroke:rgb(250, 216, 22);stroke-opacity:0.321;stroke-width:10"/>
<line x1="1000.0" y1="1000.0" x2="-159719.732651581" y2="474465.06474755297" style="stroke:rgb(250, 216, 22);stroke-opacity:0.442;stroke-width:10"/>
<line x1="1000.0" y1="1000.0" x2="-96545.16100806449" y2="491392.640201615" style="stroke:rgb(250, 216, 22);stroke-opacity:0.556;stroke-width:10"/>
<line x1="1000.0" y1="1000.0" x2="-31701.56461507135" y2="499929.46161930205" style="stroke:rgb(250, 216, 22);stroke-opacity:0.659;stroke-width:10"/>
<line x1="1000.0" y1="1000.0" x2="33701.56461507165" y2="499929.46161930205" style="stroke:rgb(250, 216, 22);stroke-opacity:0.752;stroke-width:10"/>
<line x1="1000.0" y1="1000.0" x2="98545.161008064" y2="491392.640201615" style="stroke:rgb(250, 216, 22);stroke-opacity:0.831;stroke-width:10"/>
<line x1="1000.0" y1="1000.0" x2="161719.73265158047" y2="474465.06474755297" style="stroke:rgb(250, 216, 22);stroke-opacity:0.897;stroke-width:10"/>
<line x1="1000.0" y1="1000.0" x2="222144.34510950051" y2="449436.3707663445" style="stroke:rgb(250, 216, 22);stroke-opacity:0.947;stroke-width:10"/>
<line x1="1000.0" y1="1000.0" x2="6345.4291033543905" y2="9000.0" style="stroke:rgb(250, 216, 22);stroke-opacity:0.981;stroke-width:10"/>
<line x1="1000.0" y1="1000.0" x2="8015.81170394206" y2="9000.0" style="stroke:rgb(250, 216, 22);stroke-opacity:0.998;stroke-width:10"/>
<line x1="1000.0" y1="1000.0" x2="10122.251665340382" y2="9000.0" style="stroke:rgb(250, 216, 22);stroke-opacity:0.998;stroke-width:10"/>
<line x1="1000.0" y1="1000.0" x2="416734.80615127244" y2="278785.116509801" style="stroke:rgb(250, 216, 22);stroke-opacity:0.981;stroke-width:10"/>
<line x1="1000.0" y1="1000.0" x2="449436.370766344" y2="222144.34510950051" style="stroke:rgb(250, 216, 22);stroke-opacity:0.947;stroke-width:10"/>
<line x1="1000.0" y1="1000.0" x2="474465.06474755297" y2="161719.732651581" style="stroke:rgb(250, 216, 22);stroke-opacity:0.897;stroke-width:10"/>
<line x1="1000.0" y1="1000.0" x2="1259.9537850915508" y2="1051.7080228018635" style="stroke:rgb(250, 216, 22);stroke-opacity:0.831;stroke-width:10"/>
<line x1="1259.9537850915508" y1="1051.7080228018635" x2="6877.251184001486" y2="9000.0" style="stroke:rgb(250, 216, 22);stroke-opacity:0.831;stroke-width:10"/>
<line x1="1000.0" y1="1000.0" x2="1200.5739572327375" y2="1013.146311707589" style="stroke:rgb(250, 216, 22);stroke-opacity:0.752;stroke-width:10"/>
<line x1="1200.5739572327375" y1="1013.146311707589" x2="5402.660959986414" y2="9000.0" style="stroke:rgb(250, 216, 22);stroke-opacity:0.752;stroke-width:10"/>
<line x1="1000.0" y1="1000.0" x2="1163.7985399589859" y2="989.2640764870079" style="stroke:rgb(250, 216, 22);stroke-opacity:0.659;stroke-width:10"/>
<line x1="1163.7985399589859" y1="989.2640764870079" x2="4004.554246196143" y2="8689.46935838773" style="stroke:rgb(250, 216, 22);stroke-opacity:0.659;stroke-width:10"/>
<line x1="1000.0" y1="1000.0" x2="1138.0468980564208" y2="972.540764698179" style="stroke:rgb(250, 216, 22);stroke-opacity:0.556;stroke-width:10"/>
<line x1="1138.0468980564208" y1="972.540764698179" x2="2691.2205091653304" y2="7836.580457157459" style="stroke:rgb(250, 216, 22);stroke-opacity:0.556;stroke-width:10"/>
<line x1="1000.0" y1="1000.0" x2="1118.4269965242959" y2="959.7994516654296" style="stroke:rgb(250, 216, 22);stroke-opacity:0.442;stroke-width:10"/>
<line x1="1118.4269965242959" y1="959.7994516654296" x2="1690.6055310269567" y2="7186.773492487239" style="stroke:rgb(250, 216, 22);stroke-opacity:0.442;stroke-width:10"/>
<line x1="1000.0" y1="1000.0" x2="1102.4967219429934" y2="949.4542103906105" style="stroke:rgb(250, 216, 22);stroke-opacity:0.321;stroke-width:10"/>
<line x1="1102.4967219429934" y1="949.4542103906105" x2="878.1615273805272" y2="6659.166187471463" style="stroke:rgb(250, 216, 22);stroke-opacity:0.321;stroke-width:10"/>
<line x1="1000.0" y1="1000.0" x2="1088.8806640137402" y2="940.6118389819363" style="stroke:rgb(250, 216, 22);stroke-opacity:0.195;stroke-width:10"/>
<line x1="1088.8806640137402" y1="940.6118389819363" x2="183.7425729886122" y2="6208.205245629078" style="stroke:rgb(250, 216, 22);stroke-opacity:0.195;stroke-width:10"/>
<line x1="1000.0" y1="1000.0" x2="1076.7224596208869" y2="932.71620872957" style="stroke:rgb(250, 216, 22);stroke-opacity:0.065;stroke-width:10"/>
<line x1="1076.7224596208869" y1="932.71620872957" x2="-436.3258510469068" y2="5805.528102758399" style="stroke:rgb(250, 216, 22);stroke-opacity:0.065;stroke-width:10"/>
<rect x="5000" y="9000" width="6000" height="50" fill="gray"/><rect x="5000" y="9000" width="1000.0" height="50" style="fill:rgb(250, 6, 22);fill-opacity:0.752;"/><rect x="6000.0" y="9000" width="1000.0" height="50" style="fill:rgb(250, 6, 22);fill-opacity:1.812;"/><rect x="7000.0" y="9000" width="1000.0" height="50" style="fill:rgb(250, 6, 22);fill-opacity:0;"/><rect x="8000.0" y="9000" width="1000.0" height="50" style="fill:rgb(250, 6, 22);fill-opacity:0.998;"/><rect x="9000.0" y="9000" width="1000.0" height="50" style="fill:rgb(250, 6, 22);fill-opacity:0;"/><rect x="10000.0" y="9000" width="1000.0" height="50" style="fill:rgb(250, 6, 22);fill-opacity:0.998;"/><line x1="929" y1="1071" x2="1071" y2="929" style="stroke:gray;stroke-width:20"/><line x1="1071" y1="929" x2="1337.157929311463" y2="1101.84498028459" style="stroke:gray;stroke-width:20"/><line x1="929" y1="1071" x2="829.423490667859" y2="1360.191181563391" style="stroke:gray;stroke-width:20"/></svg>