<svg width="8000" height="5500"><rect width="8000" height="5500" fill="black"/><rect x="100" y="950" width="100" height="4070" fill="gray"/><rect x="100" y="950" width="1000" height="70" fill="gray"/><line x1="1000" y1="1000" x2="11000.0" y2="-4000.0" style="stroke:rgb(196, 185, 118);stroke-width:20;stroke-dasharray:50,50" />
<line x1="1000" y1="1000" x2="11000.0" y2="-250.0" style="stroke:rgb(196, 185, 118);stroke-width:20;stroke-dasharray:50,50" />
<line x1="1000" y1="1000" x2="11000.0" y2="2250.0" style="stroke:rgb(196, 185, 118);stroke-width:20;stroke-dasharray:50,50" />
<line x1="1000" y1="1000" x2="11000.0" y2="4333.333333333334" style="stroke:rgb(196, 185, 118);stroke-width:20;stroke-dasharray:50,50" />
<line x1="1000" y1="1000" x2="11000.0" y2="6000.0" style="stroke:rgb(196, 185, 118);stroke-width:20;stroke-dasharray:50,50" />
<line x1="1000" y1="1000" x2="11000.0" y2="7666.666666666667" style="stroke:rgb(196, 185, 118);stroke-width:20;stroke-dasharray:50,50" />
<line x1="1000" y1="1000" x2="11000.0" y2="9571.42857142857" style="stroke:rgb(196, 185, 118);stroke-width:20;stroke-dasharray:50,50" />
<line x1="1000" y1="1000" x2="11000.0" y2="11000.0" style="stroke:rgb(196, 185, 118);stroke-width:20;stroke-dasharray:50,50" />
<line x1="1000" y1="1000" x2="11000.0" y2="12666.666666666666" style="stroke:rgb(196, 185, 118);stroke-width:20;stroke-dasharray:50,50" />
<line x1="1000" y1="1000" x2="11000.0" y2="16000.0" style="stroke:rgb(196, 185, 118);stroke-width:20;stroke-dasharray:50,50" />
<line x1="1000" y1="1000" x2="11000.0" y2="21000.0" style="stroke:rgb(196, 185, 118);stroke-width:20;stroke-dasharray:50,50" />
<line x1="1000" y1="1000" x2="11000.0" y2="31000.0" style="stroke:rgb(196, 185, 118);stroke-width:20;stroke-dasharray:50,50" />
<line x1="1000" y1="1000" x2="11000.0" y2="81000.0" style="stroke:rgb(196, 185, 118);stroke-width:20;stroke-dasharray:50,50" />
<line x1="1000" y1="1000" x2="-9000.0" y2="81000.0" style="stroke:rgb(196, 185, 118);stroke-width:20;stroke-dasharray:50,50" />
<line x1="1000" y1="1000" x2="-9000.0" y2="21000.0" style="stroke:rgb(196, 185, 118);stroke-width:20;stroke-dasharray:50,50" />
<line x1="1170.6128097982664" y1="914.6935951008668" x2="-490.66406341543234" y2="1852.1105295183875" style="stroke:rgb(196, 185, 118);stroke-width:20" />
<line x1="1202.5113786109894" y1="974.6860776736263" x2="-139.77980647547884" y2="2512.0278378187422" style="stroke:rgb(196, 185, 118);stroke-width:20" />
<line x1="1231.347217024327" y1="1028.918402128041" x2="177.41441607123488" y2="3108.5834068173026" style="stroke:rgb(196, 185, 118);stroke-width:20" />
<line x1="1262.4946584100649" y1="1087.4982194700217" x2="172.67665404274464" y2="5000.0" style="stroke:rgb(250, 216, 22);stroke-width:20" /><line x1="1262.4946584100649" y1="1087.4982194700217" x2="1000" y2="1000" style="stroke:rgb(250, 216, 22);stroke-width:20" /><line x1="1294.1802317897543" y1="1147.0901158948773" x2="791.3846077200831" y2="5000.0" style="stroke:rgb(250, 216, 22);stroke-width:20" /><line x1="1294.1802317897543" y1="1147.0901158948773" x2="1000" y2="1000" style="stroke:rgb(250, 216, 22);stroke-width:20" /><line x1="1000.0" y1="1000.0" x2="7000.0" y2="5000.0" style="stroke:rgb(250, 216, 22);stroke-width:20" /><line x1="1000.0" y1="1000.0" x2="5666.666666666667" y2="5000.0" style="stroke:rgb(250, 216, 22);stroke-width:20" /><line x1="1000.0" y1="1000.0" x2="5000.0" y2="5000.0" style="stroke:rgb(250, 216, 22);stroke-width:20" /><line x1="1000.0" y1="1000.0" x2="4428.571428571428" y2="5000.0" style="stroke:rgb(250, 216, 22);stroke-width:20" /><line x1="1000.0" y1="1000.0" x2="3666.6666666666665" y2="5000.0" style="stroke:rgb(250, 216, 22);stroke-width:20" /><line x1="1000.0" y1="1000.0" x2="3000.0" y2="5000.0" style="stroke:rgb(250, 216, 22);stroke-width:20" /><line x1="1000.0" y1="1000.0" x2="2333.333333333333" y2="5000.0" style="stroke:rgb(250, 216, 22);stroke-width:20" /><line x1="1000.0" y1="1000.0" x2="1500.0" y2="5000.0" style="stroke:rgb(250, 216, 22);stroke-width:20" /><line x1="1000.0" y1="1000.0" x2="500.0" y2="5000.0" style="stroke:rgb(250, 216, 22);stroke-width:20" /><line x1="863.6023904652409" y1="1272.7952190695182" x2="3064.7976108344023" y2="5000.0" style="stroke:rgb(250, 216, 22);stroke-width:20" /><line x1="863.6023904652409" y1="1272.7952190695182" x2="1000" y2="1000" style="stroke:rgb(250, 216, 22);stroke-width:20" /><rect x="100" y="5000" width="7000" height="50" fill="gray"/><line x1="859" y1="1141" x2="1141" y2="859" style="stroke:gray;stroke-width:40"/><line x1="1141" y1="859" x2="1328.229120449764" y2="1211.126761913388" style="stroke:gray;stroke-width:40"/><line x1="859" y1="1141" x2="872.918206318981" y2="1539.565281394231" style="stroke:gray;stroke-width:40"/></svg>