<svg width="8000" height="5500"><rect width="8000" height="5500" fill="black"/><rect x="100" y="950" width="100" height="4070" fill="gray"/><rect x="100" y="950" width="1000" height="70" fill="gray"/><line x1="1000" y1="1000" x2="11000.0" y2="-4000.0" style="stroke:rgb(196, 185, 118);stroke-width:20;stroke-dasharray:50,50" />
<line x1="1000" y1="1000" x2="11000.0" y2="-250.0" style="stroke:rgb(196, 185, 118);stroke-width:20;stroke-dasharray:50,50" />
<line x1="1000" y1="1000" x2="11000.0" y2="2250.0" style="stroke:rgb(196, 185, 118);stroke-width:20;stroke-dasharray:50,50" />
<line x1="1000" y1="1000" x2="11000.0" y2="4333.333333333334" style="stroke:rgb(196, 185, 118);stroke-width:20;stroke-dasharray:50,50" />
<line x1="1000" y1="1000" x2="11000.0" y2="6000.0" style="stroke:rgb(196, 185, 118);stroke-width:20;stroke-dasharray:50,50" />
<line x1="1000" y1="1000" x2="11000.0" y2="7666.666666666667" style="stroke:rgb(196, 185, 118);stroke-width:20;stroke-dasharray:50,50" />
<line x1="1000" y1="1000" x2="11000.0" y2="9571.42857142857" style="stroke:rgb(196, 185, 118);stroke-width:20;stroke-dasharray:50,50" />
<line x1="1000" y1="1000" x2="11000.0" y2="11000.0" style="stroke:rgb(196, 185, 118);stroke-width:20;stroke-dasharray:50,50" />
<line x1="1000" y1="1000" x2="11000.0" y2="12666.666666666666" style="stroke:rgb(196, 185, 118);stroke-width:20;stroke-dasharray:50,50" />
<line x1="1000" y1="1000" x2="11000.0" y2="16000.0" style="stroke:rgb(196, 185, 118);stroke-width:20;stroke-dasharray:50,50" />
<line x1="1000" y1="1000" x2="11000.0" y2="21000.0" style="stroke:rgb(196, 185, 118);stroke-width:20;stroke-dasharray:50,50" />
<line x1="1000" y1="1000" x2="11000.0" y2="31000.0" style="stroke:rgb(196, 185, 118);stroke-width:20;stroke-dasharray:50,50" />
<line x1="1000" y1="1000" x2="11000.0" y2="81000.0" style="stroke:rgb(196, 185, 118);stroke-width:20;stroke-dasharray:50,50" />
<line x1="1000" y1="1000" x2="-9000.0" y2="81000.0" style="stroke:rgb(196, 185, 118);stroke-width:20;stroke-dasharray:50,50" />
<line x1="1000" y1="1000" x2="-9000.0" y2="21000.0" style="stroke:rgb(196, 185, 118);stroke-width:20;stroke-dasharray:50,50" />
<line x1="1141.0" y1="929.5" x2="-269.0" y2="224.5" style="stroke:rgb(196, 185, 118);stroke-width:20" />
<line x1="1141.0" y1="982.375" x2="-269.0" y2="806.125" style="stroke:rgb(196, 185, 118);stroke-width:20" />
<line x1="1141.0" y1="1017.625" x2="-269.0" y2="1193.875" style="stroke:rgb(196, 185, 118);stroke-width:20" />
<line x1="1141.0" y1="1047.0" x2="-269.0" y2="1517.0" style="stroke:rgb(196, 185, 118);stroke-width:20" />
<line x1="1141.0" y1="1070.5" x2="-269.0" y2="1775.5" style="stroke:rgb(196, 185, 118);stroke-width:20" />
<line x1="1141.0" y1="1094.0" x2="-269.0" y2="2034.0" style="stroke:rgb(196, 185, 118);stroke-width:20" />
<line x1="1141.0" y1="1120.857142857143" x2="-269.0" y2="2329.4285714285716" style="stroke:rgb(196, 185, 118);stroke-width:20" />
<line x1="1141.0" y1="1141.0" x2="-269.0" y2="2551.0" style="stroke:rgb(196, 185, 118);stroke-width:20" />
<line x1="1141.0" y1="1164.5" x2="-269.0" y2="2809.5" style="stroke:rgb(196, 185, 118);stroke-width:20" />
<line x1="1141.0" y1="1211.5" x2="-269.0" y2="3326.5" style="stroke:rgb(196, 185, 118);stroke-width:20" />
<line x1="1000.0" y1="1000.0" x2="3000.0" y2="5000.0" style="stroke:rgb(250, 216, 22);stroke-width:20" /><line x1="1000.0" y1="1000.0" x2="2333.333333333333" y2="5000.0" style="stroke:rgb(250, 216, 22);stroke-width:20" /><line x1="1000.0" y1="1000.0" x2="1500.0" y2="5000.0" style="stroke:rgb(250, 216, 22);stroke-width:20" /><line x1="952.0685253069581" y1="1383.4517975443348" x2="5130.811289075245" y2="5000.0" style="stroke:rgb(250, 216, 22);stroke-width:20" /><line x1="952.0685253069581" y1="1383.4517975443348" x2="1000" y2="1000" style="stroke:rgb(250, 216, 22);stroke-width:20" /><line x1="889.6183003236606" y1="1220.7633993526788" x2="3187.1096624493825" y2="2122.757441836602" style="stroke:rgb(196, 185, 118);stroke-width:20" />
<rect x="100" y="5000" width="7000" height="50" fill="gray"/><line x1="859" y1="1141" x2="1141" y2="859" style="stroke:gray;stroke-width:40"/><line x1="1141" y1="859" x2="1141.0" y2="1257.808224589213" style="stroke:gray;stroke-width:40"/><line x1="859" y1="1141" x2="1001.9200857078379" y2="1513.3195524025891" style="stroke:gray;stroke-width:40"/></svg>